<svg width="80" height="80" viewBox="0 0 80 80" fill="none" xmlns="http://www.w3.org/2000/svg">
<rect width="80" height="80" fill="#161620"/>
<path d="M32.2787 26C37.6156 26 42.9524 26 48.451 26C48.451 28.1363 48.451 30.2725 48.451 32.4735C49.5184 32.4735 50.5858 32.4735 51.6855 32.4735C52.4605 32.9943 52.8497 33.2998 53.4097 33.9848C53.6056 34.2003 53.6056 34.2003 53.8055 34.4202C54.7297 35.4504 54.7297 35.4504 54.7297 35.7103C52.6577 35.7103 50.5858 35.7103 48.451 35.7103C48.451 39.92 48.451 44.1296 48.451 48.4669C48.3254 48.4669 48.1999 48.4669 48.0705 48.4669C47.7955 48.1872 47.7955 48.1872 47.4759 47.8005C46.9753 47.1908 46.9753 47.1908 46.3693 46.6931C45.7749 46.2418 45.3096 45.8109 45.1309 45.0609C44.9972 43.9556 45.0422 42.8422 45.0679 41.7316C45.0708 41.3709 45.0729 41.0103 45.0744 40.6496C45.0802 39.7041 45.0952 38.7591 45.112 37.8138C45.1304 36.6775 45.1373 35.5412 45.1462 34.4048C45.1609 32.6819 45.1901 30.9597 45.2166 29.2368C42.0144 29.2368 38.8123 29.2368 35.5131 29.2368C35.5131 30.3049 35.5131 31.373 35.5131 32.4735C38.2758 32.4735 41.0384 32.4735 43.8847 32.4735C43.8847 33.5416 43.8847 34.6098 43.8847 35.7103C43.2568 35.7103 42.629 35.7103 41.9821 35.7103C41.9821 41.9934 41.9821 48.2765 41.9821 54.75C41.5426 54.373 41.1031 53.996 40.6502 53.6076C40.3831 53.4103 40.3831 53.4103 40.1105 53.2091C39.3062 52.5523 38.7388 51.964 38.5827 50.9171C38.5034 49.9506 38.5333 48.9873 38.5618 48.0192C38.5654 47.6633 38.5681 47.3075 38.57 46.9516C38.5772 46.0205 38.5958 45.0899 38.617 44.159C38.6365 43.2069 38.6451 42.2547 38.6547 41.3024C38.675 39.4381 38.7075 37.5742 38.7476 35.7103C38.6328 35.717 38.518 35.7238 38.3997 35.7308C37.1898 35.7989 35.9805 35.8444 34.7691 35.8776C34.319 35.8928 33.8691 35.9135 33.4196 35.9401C29.4864 36.1666 29.4864 36.1666 28.0498 35.0253C27.2841 34.3112 26.5831 33.5358 26 32.6639C26 32.6011 26 32.5382 26 32.4735C28.072 32.4735 30.1439 32.4735 32.2787 32.4735C32.2787 30.3373 32.2787 28.201 32.2787 26Z" fill="white"/>
<path d="M35.615 36.8525H32.2831V44.8492C32.3592 45.7631 33.1399 46.4359 33.5207 46.658C33.7491 46.7342 34.7582 47.8956 35.2342 48.4668H35.615V36.8525Z" fill="white"/>
</svg>
