<svg width="230" height="46" viewBox="0 0 230 46" fill="none" xmlns="http://www.w3.org/2000/svg">
<path d="M59.1392 25.3777V1.26649H66.2841V25.3777C66.2841 27.7035 65.7744 29.7029 64.7548 31.3756C63.7352 33.0324 62.3413 34.3068 60.573 35.199C58.8206 36.0911 56.8452 36.5371 54.6467 36.5371C52.3686 36.5371 50.3534 36.1548 48.601 35.3901C46.8486 34.6255 45.4706 33.4545 44.467 31.8774C43.4634 30.2843 42.9615 28.2691 42.9615 25.8317H50.1543C50.1543 27.1061 50.3295 28.1177 50.68 28.8665C51.0464 29.6152 51.5641 30.1489 52.2332 30.4675C52.9023 30.7861 53.7068 30.9455 54.6467 30.9455C55.5548 30.9455 56.3434 30.7304 57.0125 30.3003C57.6815 29.8701 58.1993 29.2409 58.5657 28.4125C58.948 27.5841 59.1392 26.5725 59.1392 25.3777Z" fill="#26334D"/>
<path d="M88.1388 29.8701V10.2036H95.0209V36.0592H88.5451L88.1388 29.8701ZM88.9035 24.5652L90.9347 24.5174C90.9347 26.2379 90.7356 27.839 90.3373 29.3205C89.939 30.7861 89.3416 32.0606 88.5451 33.1439C87.7485 34.2113 86.7449 35.0476 85.5342 35.653C84.3234 36.2424 82.8976 36.5371 81.2568 36.5371C79.9982 36.5371 78.8353 36.3619 77.7679 36.0114C76.7165 35.645 75.8085 35.0795 75.0438 34.3148C74.295 33.5342 73.7056 32.5385 73.2755 31.3278C72.8613 30.1011 72.6542 28.6275 72.6542 26.907V10.2036H79.5362V26.9548C79.5362 27.7195 79.6239 28.3647 79.7991 28.8904C79.9903 29.4161 80.2531 29.8462 80.5877 30.1808C80.9222 30.5153 81.3125 30.7543 81.7586 30.8977C82.2206 31.041 82.7304 31.1127 83.2879 31.1127C84.7058 31.1127 85.8209 30.826 86.6334 30.2525C87.4618 29.679 88.0433 28.8984 88.3778 27.9106C88.7283 26.907 88.9035 25.7919 88.9035 24.5652Z" fill="#26334D"/>
<path d="M108.034 15.8431V36.0592H101.152V10.2036H107.628L108.034 15.8431ZM115.824 10.0364L115.705 16.4166C115.37 16.3688 114.964 16.329 114.486 16.2971C114.024 16.2494 113.602 16.2255 113.22 16.2255C112.248 16.2255 111.403 16.3529 110.687 16.6078C109.986 16.8468 109.396 17.2052 108.918 17.6831C108.456 18.161 108.106 18.7425 107.867 19.4275C107.644 20.1126 107.516 20.8932 107.484 21.7694L106.098 21.3392C106.098 19.6665 106.266 18.1292 106.6 16.7273C106.935 15.3094 107.421 14.0748 108.058 13.0234C108.711 11.9719 109.508 11.1595 110.448 10.586C111.387 10.0125 112.463 9.72571 113.674 9.72571C114.056 9.72571 114.446 9.75758 114.844 9.8213C115.243 9.86909 115.569 9.94078 115.824 10.0364Z" fill="#26334D"/>
<path d="M127.212 10.2036V36.0592H120.306V10.2036H127.212ZM119.876 3.46494C119.876 2.4613 120.227 1.6329 120.928 0.97974C121.629 0.32658 122.569 0 123.747 0C124.91 0 125.842 0.32658 126.543 0.97974C127.26 1.6329 127.619 2.4613 127.619 3.46494C127.619 4.46857 127.26 5.29697 126.543 5.95013C125.842 6.60329 124.91 6.92987 123.747 6.92987C122.569 6.92987 121.629 6.60329 120.928 5.95013C120.227 5.29697 119.876 4.46857 119.876 3.46494Z" fill="#26334D"/>
<path d="M147.753 28.9143C147.753 28.4204 147.609 27.9744 147.323 27.5761C147.036 27.1778 146.502 26.8114 145.722 26.4769C144.957 26.1264 143.85 25.8078 142.4 25.521C141.094 25.2343 139.875 24.8758 138.744 24.4457C137.629 23.9997 136.657 23.466 135.829 22.8447C135.016 22.2234 134.379 21.4906 133.917 20.6462C133.455 19.786 133.224 18.8062 133.224 17.707C133.224 16.6237 133.455 15.6042 133.917 14.6483C134.395 13.6925 135.072 12.8481 135.948 12.1153C136.84 11.3666 137.924 10.7851 139.198 10.3709C140.488 9.94078 141.938 9.72571 143.547 9.72571C145.793 9.72571 147.721 10.0842 149.33 10.801C150.955 11.5179 152.197 12.5056 153.058 13.7642C153.934 15.0068 154.372 16.4246 154.372 18.0177H147.49C147.49 17.3486 147.347 16.7512 147.06 16.2255C146.789 15.6838 146.359 15.2616 145.769 14.959C145.196 14.6403 144.447 14.481 143.523 14.481C142.759 14.481 142.097 14.6165 141.54 14.8873C140.982 15.1422 140.552 15.4926 140.249 15.9387C139.963 16.3688 139.819 16.8468 139.819 17.3725C139.819 17.7707 139.899 18.1292 140.058 18.4478C140.233 18.7505 140.512 19.0293 140.895 19.2842C141.277 19.539 141.771 19.778 142.376 20.001C142.997 20.2081 143.762 20.3993 144.67 20.5745C146.534 20.9569 148.199 21.4587 149.664 22.08C151.13 22.6854 152.293 23.5138 153.153 24.5652C154.014 25.6007 154.444 26.9628 154.444 28.6514C154.444 29.7984 154.189 30.8499 153.679 31.8057C153.169 32.7616 152.436 33.5979 151.481 34.3148C150.525 35.0158 149.378 35.5654 148.04 35.9636C146.717 36.346 145.228 36.5371 143.571 36.5371C141.165 36.5371 139.126 36.107 137.454 35.2468C135.797 34.3865 134.538 33.2952 133.678 31.973C132.834 30.6348 132.411 29.2648 132.411 27.8629H138.935C138.967 28.8028 139.206 29.5595 139.652 30.133C140.114 30.7065 140.695 31.1207 141.396 31.3756C142.113 31.6305 142.886 31.7579 143.714 31.7579C144.606 31.7579 145.347 31.6384 145.937 31.3995C146.526 31.1446 146.972 30.81 147.275 30.3958C147.593 29.9657 147.753 29.4719 147.753 28.9143Z" fill="#26334D"/>
<path d="M166.668 15.174V46H159.786V10.2036H166.166L166.668 15.174ZM183.037 22.8447V23.3465C183.037 25.2263 182.814 26.9707 182.368 28.5797C181.938 30.1887 181.301 31.5906 180.456 32.7855C179.612 33.9643 178.561 34.8883 177.302 35.5574C176.059 36.2106 174.626 36.5371 173.001 36.5371C171.424 36.5371 170.054 36.2185 168.891 35.5813C167.728 34.9441 166.748 34.0519 165.951 32.9049C165.171 31.742 164.542 30.3958 164.064 28.8665C163.586 27.3371 163.219 25.6963 162.964 23.9439V22.6296C163.219 20.7498 163.586 19.0293 164.064 17.4681C164.542 15.8909 165.171 14.5288 165.951 13.3818C166.748 12.2189 167.72 11.3188 168.867 10.6816C170.03 10.0443 171.392 9.72571 172.953 9.72571C174.594 9.72571 176.036 10.0364 177.278 10.6577C178.537 11.279 179.588 12.1711 180.432 13.334C181.293 14.497 181.938 15.8829 182.368 17.4919C182.814 19.101 183.037 20.8852 183.037 22.8447ZM176.131 23.3465V22.8447C176.131 21.7455 176.036 20.7339 175.844 19.8099C175.669 18.87 175.382 18.0495 174.984 17.3486C174.602 16.6476 174.092 16.106 173.455 15.7236C172.833 15.3254 172.077 15.1262 171.185 15.1262C170.245 15.1262 169.44 15.2776 168.771 15.5803C168.118 15.8829 167.584 16.321 167.17 16.8945C166.756 17.4681 166.445 18.1531 166.238 18.9496C166.031 19.7461 165.904 20.6462 165.856 21.6499V24.9714C165.935 26.1503 166.158 27.2097 166.525 28.1496C166.891 29.0736 167.457 29.8064 168.222 30.3481C168.986 30.8897 169.99 31.1605 171.232 31.1605C172.14 31.1605 172.905 30.9614 173.526 30.5631C174.148 30.1489 174.65 29.5834 175.032 28.8665C175.43 28.1496 175.709 27.3212 175.868 26.3813C176.044 25.4414 176.131 24.4298 176.131 23.3465Z" fill="#26334D"/>
<path d="M195.071 15.8431V36.0592H188.188V10.2036H194.664L195.071 15.8431ZM202.861 10.0364L202.741 16.4166C202.407 16.3688 202 16.329 201.522 16.2971C201.06 16.2494 200.638 16.2255 200.256 16.2255C199.284 16.2255 198.44 16.3529 197.723 16.6078C197.022 16.8468 196.433 17.2052 195.955 17.6831C195.493 18.161 195.142 18.7425 194.903 19.4275C194.68 20.1126 194.553 20.8932 194.521 21.7694L193.135 21.3392C193.135 19.6665 193.302 18.1292 193.637 16.7273C193.971 15.3094 194.457 14.0748 195.094 13.0234C195.748 11.9719 196.544 11.1595 197.484 10.586C198.424 10.0125 199.499 9.72571 200.71 9.72571C201.092 9.72571 201.483 9.75758 201.881 9.8213C202.279 9.86909 202.606 9.94078 202.861 10.0364Z" fill="#26334D"/>
<path d="M205.168 23.3943V22.8925C205.168 20.9967 205.439 19.2523 205.981 17.6592C206.522 16.0502 207.311 14.6563 208.346 13.4774C209.382 12.2985 210.656 11.3825 212.17 10.7294C213.683 10.0603 215.42 9.72571 217.379 9.72571C219.339 9.72571 221.083 10.0603 222.612 10.7294C224.142 11.3825 225.424 12.2985 226.46 13.4774C227.511 14.6563 228.308 16.0502 228.849 17.6592C229.391 19.2523 229.662 20.9967 229.662 22.8925V23.3943C229.662 25.2741 229.391 27.0185 228.849 28.6275C228.308 30.2206 227.511 31.6145 226.46 32.8094C225.424 33.9882 224.15 34.9042 222.636 35.5574C221.123 36.2106 219.386 36.5371 217.427 36.5371C215.468 36.5371 213.723 36.2106 212.194 35.5574C210.68 34.9042 209.398 33.9882 208.346 32.8094C207.311 31.6145 206.522 30.2206 205.981 28.6275C205.439 27.0185 205.168 25.2741 205.168 23.3943ZM212.05 22.8925V23.3943C212.05 24.4776 212.146 25.4892 212.337 26.4291C212.528 27.369 212.831 28.1974 213.245 28.9143C213.675 29.6152 214.233 30.1648 214.918 30.5631C215.603 30.9614 216.439 31.1605 217.427 31.1605C218.383 31.1605 219.203 30.9614 219.888 30.5631C220.573 30.1648 221.123 29.6152 221.537 28.9143C221.951 28.1974 222.254 27.369 222.445 26.4291C222.652 25.4892 222.756 24.4776 222.756 23.3943V22.8925C222.756 21.841 222.652 20.8533 222.445 19.9294C222.254 18.9894 221.943 18.161 221.513 17.4442C221.099 16.7113 220.549 16.1378 219.864 15.7236C219.179 15.3094 218.351 15.1023 217.379 15.1023C216.407 15.1023 215.579 15.3094 214.894 15.7236C214.225 16.1378 213.675 16.7113 213.245 17.4442C212.831 18.161 212.528 18.9894 212.337 19.9294C212.146 20.8533 212.05 21.841 212.05 22.8925Z" fill="#26334D"/>
<path d="M10.5459 0C19.0849 0 27.6239 0 36.4216 0C36.4216 3.41801 36.4216 6.83603 36.4216 10.3576C38.1294 10.3576 39.8372 10.3576 41.5968 10.3576C42.8368 11.1908 43.4595 11.6797 44.3556 12.7757C44.669 13.1205 44.669 13.1205 44.9888 13.4724C46.4675 15.1207 46.4675 15.1207 46.4675 15.5364C43.1524 15.5364 39.8372 15.5364 36.4216 15.5364C36.4216 22.2719 36.4216 29.0074 36.4216 35.947C36.2207 35.947 36.0198 35.947 35.8128 35.947C35.3728 35.4996 35.3728 35.4996 34.8615 34.8808C34.0604 33.9053 34.0604 33.9053 33.0908 33.109C32.1398 32.3869 31.3953 31.6975 31.1094 30.4975C30.8956 28.7289 30.9675 26.9476 31.0087 25.1705C31.0132 24.5935 31.0167 24.0164 31.0191 23.4393C31.0284 21.9266 31.0523 20.4145 31.0793 18.902C31.1087 17.084 31.1198 15.2658 31.1339 13.4477C31.1575 10.691 31.2042 7.93557 31.2465 5.17881C26.1231 5.17881 20.9997 5.17881 15.721 5.17881C15.721 6.88781 15.721 8.59682 15.721 10.3576C20.1412 10.3576 24.5614 10.3576 29.1155 10.3576C29.1155 12.0666 29.1155 13.7756 29.1155 15.5364C28.111 15.5364 27.1064 15.5364 26.0713 15.5364C26.0713 25.5894 26.0713 35.6424 26.0713 46C25.3681 45.3968 24.6649 44.7936 23.9404 44.1722C23.5129 43.8566 23.5129 43.8566 23.0768 43.5345C21.7899 42.4837 20.8821 41.5424 20.6324 39.8673C20.5055 38.321 20.5532 36.7797 20.5989 35.2307C20.6046 34.6613 20.6089 34.0919 20.612 33.5225C20.6235 32.0327 20.6533 30.5438 20.6872 29.0544C20.7184 27.531 20.7322 26.0075 20.7475 24.4839C20.7801 21.501 20.8319 18.5188 20.8962 15.5364C20.7125 15.5472 20.5288 15.5581 20.3396 15.5692C18.4037 15.6782 16.4687 15.751 14.5306 15.8042C13.8105 15.8285 13.0906 15.8616 12.3714 15.9041C6.07826 16.2666 6.07826 16.2666 3.77966 14.4404C2.55455 13.2979 1.4329 12.0573 0.5 10.6623C0.5 10.5617 0.5 10.4612 0.5 10.3576C3.81514 10.3576 7.13028 10.3576 10.5459 10.3576C10.5459 6.9396 10.5459 3.52159 10.5459 0Z" fill="#26334D"/>
<path d="M15.8841 17.3643H10.553V30.159C10.6748 31.6212 11.9238 32.6976 12.5331 33.053C12.8987 33.1749 14.5132 35.0331 15.2748 35.947H15.8841V17.3643Z" fill="#26334D"/>
</svg>
