<svg width="230" height="46" viewBox="0 0 230 46" fill="none" xmlns="http://www.w3.org/2000/svg">
<path d="M58.6392 25.3777V1.26649H65.7841V25.3777C65.7841 27.7036 65.2744 29.7029 64.2548 31.3756C63.2352 33.0324 61.8413 34.3068 60.073 35.199C58.3206 36.0911 56.3452 36.5371 54.1467 36.5371C51.8686 36.5371 49.8534 36.1548 48.101 35.3901C46.3486 34.6255 44.9706 33.4545 43.967 31.8774C42.9634 30.2843 42.4615 28.2691 42.4615 25.8317H49.6543C49.6543 27.1061 49.8295 28.1177 50.18 28.8665C50.5464 29.6152 51.0641 30.1489 51.7332 30.4675C52.4023 30.7861 53.2068 30.9455 54.1467 30.9455C55.0548 30.9455 55.8434 30.7304 56.5125 30.3003C57.1815 29.8701 57.6993 29.2409 58.0657 28.4125C58.448 27.5841 58.6392 26.5725 58.6392 25.3777Z" fill="#DFE3EB"/>
<path d="M87.6388 29.8701V10.2036H94.5209V36.0592H88.0451L87.6388 29.8701ZM88.4035 24.5652L90.4347 24.5174C90.4347 26.2379 90.2355 27.839 89.8373 29.3205C89.439 30.7861 88.8416 32.0606 88.0451 33.1439C87.2485 34.2113 86.2449 35.0476 85.0342 35.653C83.8234 36.2424 82.3976 36.5371 80.7568 36.5371C79.4982 36.5371 78.3353 36.3619 77.2679 36.0114C76.2165 35.645 75.3084 35.0795 74.5438 34.3148C73.795 33.5342 73.2056 32.5385 72.7755 31.3278C72.3613 30.1011 72.1542 28.6275 72.1542 26.907V10.2036H79.0362V26.9548C79.0362 27.7195 79.1239 28.3647 79.2991 28.8904C79.4903 29.4161 79.7531 29.8462 80.0877 30.1808C80.4222 30.5153 80.8125 30.7543 81.2586 30.8977C81.7206 31.041 82.2304 31.1127 82.7879 31.1127C84.2058 31.1127 85.3209 30.826 86.1334 30.2525C86.9618 29.679 87.5433 28.8984 87.8778 27.9107C88.2283 26.907 88.4035 25.7919 88.4035 24.5652Z" fill="#DFE3EB"/>
<path d="M107.534 15.8431V36.0592H100.652V10.2036H107.128L107.534 15.8431ZM115.324 10.0364L115.205 16.4166C114.87 16.3688 114.464 16.329 113.986 16.2971C113.524 16.2494 113.102 16.2255 112.72 16.2255C111.748 16.2255 110.903 16.3529 110.187 16.6078C109.486 16.8468 108.896 17.2052 108.418 17.6831C107.956 18.161 107.606 18.7425 107.367 19.4275C107.144 20.1126 107.016 20.8932 106.984 21.7694L105.598 21.3392C105.598 19.6665 105.766 18.1292 106.1 16.7273C106.435 15.3094 106.921 14.0748 107.558 13.0234C108.211 11.9719 109.008 11.1595 109.948 10.586C110.887 10.0125 111.963 9.72571 113.174 9.72571C113.556 9.72571 113.946 9.75758 114.344 9.8213C114.743 9.86909 115.069 9.94078 115.324 10.0364Z" fill="#DFE3EB"/>
<path d="M126.712 10.2036V36.0592H119.806V10.2036H126.712ZM119.376 3.46494C119.376 2.4613 119.727 1.6329 120.428 0.97974C121.129 0.32658 122.069 0 123.247 0C124.41 0 125.342 0.32658 126.043 0.97974C126.76 1.6329 127.119 2.4613 127.119 3.46494C127.119 4.46857 126.76 5.29697 126.043 5.95013C125.342 6.60329 124.41 6.92987 123.247 6.92987C122.069 6.92987 121.129 6.60329 120.428 5.95013C119.727 5.29697 119.376 4.46857 119.376 3.46494Z" fill="#DFE3EB"/>
<path d="M147.253 28.9143C147.253 28.4204 147.109 27.9744 146.823 27.5761C146.536 27.1778 146.002 26.8114 145.222 26.4769C144.457 26.1264 143.35 25.8078 141.9 25.521C140.594 25.2343 139.375 24.8758 138.244 24.4457C137.129 23.9997 136.157 23.466 135.329 22.8447C134.516 22.2234 133.879 21.4906 133.417 20.6462C132.955 19.786 132.724 18.8062 132.724 17.707C132.724 16.6237 132.955 15.6042 133.417 14.6483C133.895 13.6925 134.572 12.8481 135.448 12.1153C136.34 11.3666 137.424 10.7851 138.698 10.3709C139.988 9.94078 141.438 9.72571 143.047 9.72571C145.293 9.72571 147.221 10.0842 148.83 10.801C150.455 11.5179 151.697 12.5056 152.558 13.7642C153.434 15.0068 153.872 16.4246 153.872 18.0177H146.99C146.99 17.3486 146.847 16.7512 146.56 16.2255C146.289 15.6838 145.859 15.2616 145.269 14.959C144.696 14.6403 143.947 14.481 143.023 14.481C142.259 14.481 141.597 14.6165 141.04 14.8873C140.482 15.1422 140.052 15.4926 139.749 15.9387C139.463 16.3688 139.319 16.8468 139.319 17.3725C139.319 17.7707 139.399 18.1292 139.558 18.4478C139.733 18.7505 140.012 19.0293 140.395 19.2842C140.777 19.539 141.271 19.778 141.876 20.001C142.497 20.2081 143.262 20.3993 144.17 20.5745C146.034 20.9569 147.699 21.4587 149.164 22.08C150.63 22.6854 151.793 23.5138 152.653 24.5652C153.514 25.6007 153.944 26.9628 153.944 28.6514C153.944 29.7984 153.689 30.8499 153.179 31.8057C152.669 32.7616 151.936 33.5979 150.981 34.3148C150.025 35.0158 148.878 35.5654 147.54 35.9636C146.217 36.346 144.728 36.5371 143.071 36.5371C140.665 36.5371 138.626 36.107 136.954 35.2468C135.297 34.3865 134.038 33.2952 133.178 31.973C132.334 30.6348 131.911 29.2648 131.911 27.8629H138.435C138.467 28.8028 138.706 29.5595 139.152 30.133C139.614 30.7065 140.195 31.1207 140.896 31.3756C141.613 31.6305 142.386 31.7579 143.214 31.7579C144.106 31.7579 144.847 31.6384 145.437 31.3995C146.026 31.1446 146.472 30.81 146.775 30.3958C147.093 29.9657 147.253 29.4719 147.253 28.9143Z" fill="#DFE3EB"/>
<path d="M166.168 15.174V46H159.286V10.2036H165.666L166.168 15.174ZM182.537 22.8447V23.3465C182.537 25.2263 182.314 26.9707 181.868 28.5797C181.438 30.1887 180.801 31.5906 179.956 32.7855C179.112 33.9643 178.061 34.8883 176.802 35.5574C175.559 36.2106 174.126 36.5371 172.501 36.5371C170.924 36.5371 169.554 36.2185 168.391 35.5813C167.228 34.9441 166.248 34.0519 165.451 32.9049C164.671 31.742 164.042 30.3958 163.564 28.8665C163.086 27.3371 162.719 25.6963 162.464 23.9439V22.6296C162.719 20.7498 163.086 19.0293 163.564 17.4681C164.042 15.8909 164.671 14.5288 165.451 13.3818C166.248 12.2189 167.22 11.3188 168.367 10.6816C169.53 10.0443 170.892 9.72571 172.453 9.72571C174.094 9.72571 175.536 10.0364 176.778 10.6577C178.037 11.279 179.088 12.1711 179.932 13.334C180.793 14.497 181.438 15.8829 181.868 17.4919C182.314 19.101 182.537 20.8852 182.537 22.8447ZM175.631 23.3465V22.8447C175.631 21.7455 175.536 20.7339 175.344 19.8099C175.169 18.87 174.882 18.0495 174.484 17.3486C174.102 16.6476 173.592 16.106 172.955 15.7236C172.333 15.3254 171.577 15.1262 170.685 15.1262C169.745 15.1262 168.94 15.2776 168.271 15.5803C167.618 15.8829 167.084 16.321 166.67 16.8945C166.256 17.4681 165.945 18.1531 165.738 18.9496C165.531 19.7461 165.404 20.6462 165.356 21.6499V24.9714C165.435 26.1503 165.658 27.2097 166.025 28.1496C166.391 29.0736 166.957 29.8064 167.722 30.3481C168.486 30.8897 169.49 31.1605 170.732 31.1605C171.64 31.1605 172.405 30.9614 173.026 30.5631C173.648 30.1489 174.15 29.5834 174.532 28.8665C174.93 28.1496 175.209 27.3212 175.368 26.3813C175.544 25.4414 175.631 24.4298 175.631 23.3465Z" fill="#DFE3EB"/>
<path d="M194.57 15.8431V36.0592H187.688V10.2036H194.164L194.57 15.8431ZM202.361 10.0364L202.241 16.4166C201.907 16.3688 201.5 16.329 201.022 16.2971C200.56 16.2494 200.138 16.2255 199.756 16.2255C198.784 16.2255 197.94 16.3529 197.223 16.6078C196.522 16.8468 195.933 17.2052 195.455 17.6831C194.993 18.161 194.642 18.7425 194.403 19.4275C194.18 20.1126 194.053 20.8932 194.021 21.7694L192.635 21.3392C192.635 19.6665 192.802 18.1292 193.137 16.7273C193.471 15.3094 193.957 14.0748 194.594 13.0234C195.248 11.9719 196.044 11.1595 196.984 10.586C197.924 10.0125 198.999 9.72571 200.21 9.72571C200.592 9.72571 200.983 9.75758 201.381 9.8213C201.779 9.86909 202.106 9.94078 202.361 10.0364Z" fill="#DFE3EB"/>
<path d="M204.668 23.3943V22.8925C204.668 20.9967 204.939 19.2523 205.481 17.6592C206.022 16.0502 206.811 14.6563 207.846 13.4774C208.882 12.2985 210.156 11.3825 211.67 10.7294C213.183 10.0603 214.92 9.72571 216.879 9.72571C218.839 9.72571 220.583 10.0603 222.112 10.7294C223.642 11.3825 224.924 12.2985 225.96 13.4774C227.011 14.6563 227.808 16.0502 228.349 17.6592C228.891 19.2523 229.162 20.9967 229.162 22.8925V23.3943C229.162 25.2741 228.891 27.0185 228.349 28.6275C227.808 30.2206 227.011 31.6145 225.96 32.8093C224.924 33.9882 223.65 34.9042 222.136 35.5574C220.623 36.2106 218.886 36.5371 216.927 36.5371C214.968 36.5371 213.223 36.2106 211.694 35.5574C210.18 34.9042 208.898 33.9882 207.846 32.8093C206.811 31.6145 206.022 30.2206 205.481 28.6275C204.939 27.0185 204.668 25.2741 204.668 23.3943ZM211.55 22.8925V23.3943C211.55 24.4776 211.646 25.4892 211.837 26.4291C212.028 27.369 212.331 28.1974 212.745 28.9143C213.175 29.6152 213.733 30.1648 214.418 30.5631C215.103 30.9614 215.939 31.1605 216.927 31.1605C217.883 31.1605 218.703 30.9614 219.388 30.5631C220.073 30.1648 220.623 29.6152 221.037 28.9143C221.451 28.1974 221.754 27.369 221.945 26.4291C222.152 25.4892 222.256 24.4776 222.256 23.3943V22.8925C222.256 21.841 222.152 20.8533 221.945 19.9293C221.754 18.9894 221.443 18.161 221.013 17.4442C220.599 16.7113 220.049 16.1378 219.364 15.7236C218.679 15.3094 217.851 15.1023 216.879 15.1023C215.907 15.1023 215.079 15.3094 214.394 15.7236C213.725 16.1378 213.175 16.7113 212.745 17.4442C212.331 18.161 212.028 18.9894 211.837 19.9293C211.646 20.8533 211.55 21.841 211.55 22.8925Z" fill="#DFE3EB"/>
<path d="M10.0459 0C18.5849 0 27.1239 0 35.9216 0C35.9216 3.41801 35.9216 6.83603 35.9216 10.3576C37.6294 10.3576 39.3372 10.3576 41.0968 10.3576C42.3368 11.1908 42.9595 11.6797 43.8556 12.7757C44.169 13.1205 44.169 13.1205 44.4888 13.4724C45.9675 15.1207 45.9675 15.1207 45.9675 15.5364C42.6524 15.5364 39.3372 15.5364 35.9216 15.5364C35.9216 22.2719 35.9216 29.0074 35.9216 35.947C35.7207 35.947 35.5198 35.947 35.3128 35.947C34.8728 35.4996 34.8728 35.4996 34.3615 34.8808C33.5604 33.9053 33.5604 33.9053 32.5908 33.109C31.6398 32.3869 30.8953 31.6975 30.6094 30.4975C30.3956 28.7289 30.4675 26.9476 30.5087 25.1705C30.5132 24.5935 30.5167 24.0164 30.5191 23.4393C30.5284 21.9266 30.5522 20.4145 30.5793 18.902C30.6087 17.084 30.6198 15.2658 30.6339 13.4477C30.6575 10.691 30.7042 7.93557 30.7465 5.17881C25.6231 5.17881 20.4997 5.17881 15.221 5.17881C15.221 6.88781 15.221 8.59682 15.221 10.3576C19.6412 10.3576 24.0614 10.3576 28.6155 10.3576C28.6155 12.0666 28.6155 13.7756 28.6155 15.5364C27.611 15.5364 26.6064 15.5364 25.5713 15.5364C25.5713 25.5894 25.5713 35.6424 25.5713 46C24.8681 45.3968 24.1649 44.7936 23.4404 44.1722C23.0129 43.8566 23.0129 43.8566 22.5768 43.5345C21.2899 42.4837 20.3821 41.5424 20.1324 39.8673C20.0055 38.321 20.0532 36.7797 20.0989 35.2307C20.1046 34.6613 20.1089 34.0919 20.1119 33.5225C20.1235 32.0327 20.1533 30.5438 20.1872 29.0544C20.2184 27.531 20.2322 26.0075 20.2475 24.4839C20.2801 21.501 20.3319 18.5188 20.3962 15.5364C20.2125 15.5472 20.0288 15.5581 19.8396 15.5692C17.9037 15.6782 15.9687 15.751 14.0306 15.8042C13.3105 15.8285 12.5906 15.8616 11.8714 15.9041C5.57826 16.2666 5.57826 16.2666 3.27966 14.4404C2.05455 13.2979 0.932897 12.0573 0 10.6623C0 10.5617 0 10.4612 0 10.3576C3.31514 10.3576 6.63028 10.3576 10.0459 10.3576C10.0459 6.9396 10.0459 3.52159 10.0459 0Z" fill="#DFE3EB"/>
<path d="M15.3841 17.3633H10.053V30.158C10.1748 31.6202 11.4238 32.6966 12.0331 33.052C12.3987 33.1739 14.0132 35.0322 14.7748 35.9461H15.3841V17.3633Z" fill="#DFE3EB"/>
</svg>
