<svg width="165" height="56" viewBox="0 0 165 56" fill="none" xmlns="http://www.w3.org/2000/svg">
<mask id="mask0_2014_3815" style="mask-type:luminance" maskUnits="userSpaceOnUse" x="1" y="10" width="22" height="15">
<path d="M6.26183 19.7629C9.0954 16.9302 12.6369 14.8138 16.8043 13.4576L9.14922 21.1088C8.25535 22.0023 7.06758 22.4943 5.80292 22.4943C5.14384 22.4943 4.50515 22.3602 3.91792 22.106L6.26183 19.7629ZM10.3787 22.338L22.7222 10L17.8167 11.3421C12.712 12.7379 8.41029 15.1575 5.03207 18.5338L1.22687 22.338C2.49064 23.6003 4.14619 24.2324 5.80292 24.2324C7.45936 24.2324 9.11521 23.6003 10.3787 22.338Z" fill="white"/>
</mask>
<g mask="url(#mask0_2014_3815)">
<path d="M6.26183 19.7629C9.0954 16.9302 12.6369 14.8138 16.8043 13.4576L9.14922 21.1088C8.25535 22.0023 7.06758 22.4943 5.80292 22.4943C5.14384 22.4943 4.50515 22.3602 3.91792 22.106L6.26183 19.7629ZM10.3787 22.338L22.7222 10L17.8167 11.3421C12.712 12.7379 8.41029 15.1575 5.03207 18.5338L1.22687 22.338C2.49064 23.6003 4.14619 24.2324 5.80292 24.2324C7.45936 24.2324 9.11521 23.6003 10.3787 22.338Z" fill="#99A6BF"/>
</g>
<mask id="mask1_2014_3815" style="mask-type:luminance" maskUnits="userSpaceOnUse" x="0" y="23" width="15" height="22">
<path d="M11.276 36.9842C12.6876 38.3948 13.0197 40.4819 12.2719 42.2111L9.92944 39.8699C7.09616 37.0377 4.97815 33.498 3.62183 29.3326L11.276 36.9842ZM8.70026 41.0987L12.5061 44.9023C13.7695 43.6392 14.4011 41.9845 14.4011 40.3288C14.4011 38.6729 13.7695 37.0182 12.5061 35.755L0.162292 23.4176L1.50442 28.3207C2.90095 33.4229 5.32263 37.7227 8.70026 41.0987Z" fill="white"/>
</mask>
<g mask="url(#mask1_2014_3815)">
<path d="M11.276 36.9842C12.6876 38.3948 13.0197 40.4819 12.2719 42.2111L9.92944 39.8699C7.09616 37.0377 4.97815 33.498 3.62183 29.3326L11.276 36.9842ZM8.70026 41.0987L12.5061 44.9023C13.7695 43.6392 14.4011 41.9845 14.4011 40.3288C14.4011 38.6729 13.7695 37.0182 12.5061 35.755L0.162292 23.4176L1.50442 28.3207C2.90095 33.4229 5.32263 37.7227 8.70026 41.0987Z" fill="#99A6BF"/>
</g>
<mask id="mask2_2014_3815" style="mask-type:luminance" maskUnits="userSpaceOnUse" x="13" y="31" width="23" height="15">
<path d="M30.0641 36.2371C27.2308 39.0698 23.6897 41.1868 19.5222 42.5425L27.1773 34.8912C28.0712 33.9975 29.2598 33.5054 30.5236 33.5054C31.183 33.5054 31.8214 33.6399 32.4086 33.894L30.0641 36.2371ZM30.5236 31.7676C28.868 31.7676 27.2113 32.3995 25.9478 33.6626L13.6041 46L18.5098 44.6585C23.6146 43.2627 27.9162 40.8425 31.2941 37.4662L35.0996 33.6626C34.4681 33.0316 33.7377 32.5576 32.9586 32.2416C32.1803 31.9257 31.3518 31.7676 30.5236 31.7676Z" fill="white"/>
</mask>
<g mask="url(#mask2_2014_3815)">
<path d="M30.0641 36.2371C27.2308 39.0698 23.6897 41.1868 19.5222 42.5425L27.1773 34.8912C28.0712 33.9975 29.2598 33.5054 30.5236 33.5054C31.183 33.5054 31.8214 33.6399 32.4086 33.894L30.0641 36.2371ZM30.5236 31.7676C28.868 31.7676 27.2113 32.3995 25.9478 33.6626L13.6041 46L18.5098 44.6585C23.6146 43.2627 27.9162 40.8425 31.2941 37.4662L35.0996 33.6626C34.4681 33.0316 33.7377 32.5576 32.9586 32.2416C32.1803 31.9257 31.3518 31.7676 30.5236 31.7676Z" fill="#99A6BF"/>
</g>
<mask id="mask3_2014_3815" style="mask-type:luminance" maskUnits="userSpaceOnUse" x="21" y="11" width="16" height="22">
<path d="M24.0514 13.7905L26.3938 16.1318C29.2274 18.9645 31.3451 22.5036 32.7014 26.669L25.0469 19.0183C23.6356 17.6074 23.3039 15.5197 24.0514 13.7905ZM23.8175 20.2466L36.1606 32.584L34.8188 27.6807C33.4223 22.5787 31.0006 18.2789 27.6227 14.9026L23.8175 11.0993C21.2899 13.6253 21.2899 17.7203 23.8175 20.2466Z" fill="white"/>
</mask>
<g mask="url(#mask3_2014_3815)">
<path d="M24.0514 13.7905L26.3938 16.1318C29.2274 18.9645 31.3451 22.5036 32.7014 26.669L25.0469 19.0183C23.6356 17.6074 23.3039 15.5197 24.0514 13.7905ZM23.8175 20.2466L36.1606 32.584L34.8188 27.6807C33.4223 22.5787 31.0006 18.2789 27.6227 14.9026L23.8175 11.0993C21.2899 13.6253 21.2899 17.7203 23.8175 20.2466Z" fill="#99A6BF"/>
</g>
<path d="M60.2406 43.64C57.7073 43.64 55.534 43.2133 53.7206 42.36C51.9073 41.5067 50.4273 40.3733 49.2806 38.96C48.1606 37.52 47.334 35.9333 46.8006 34.2C46.2673 32.4667 46.0006 30.7333 46.0006 29C46.0006 27.32 46.2806 25.6267 46.8406 23.92C47.4006 22.1867 48.254 20.6 49.4006 19.16C50.574 17.72 52.0273 16.56 53.7606 15.68C55.5206 14.8 57.574 14.36 59.9206 14.36C62.374 14.36 64.494 14.8 66.2806 15.68C68.0673 16.56 69.534 17.7333 70.6806 19.2C71.854 20.64 72.7206 22.2133 73.2806 23.92C73.8673 25.6267 74.1606 27.32 74.1606 29C74.1606 30.6533 73.8806 32.3467 73.3206 34.08C72.7606 35.7867 71.894 37.3733 70.7206 38.84C69.574 40.28 68.134 41.44 66.4006 42.32C64.6673 43.2 62.614 43.64 60.2406 43.64ZM60.3206 42C61.974 42 63.414 41.6533 64.6406 40.96C65.8673 40.24 66.8806 39.2933 67.6806 38.12C68.5073 36.92 69.1206 35.6 69.5206 34.16C69.9473 32.6933 70.1606 31.2267 70.1606 29.76C70.1606 28.1067 69.934 26.4667 69.4806 24.84C69.0273 23.2133 68.3606 21.7333 67.4806 20.4C66.6006 19.0667 65.5073 18 64.2006 17.2C62.9206 16.3733 61.454 15.96 59.8006 15.96C58.1473 15.96 56.694 16.32 55.4406 17.04C54.214 17.76 53.1873 18.72 52.3606 19.92C51.5606 21.0933 50.9473 22.4133 50.5206 23.88C50.1206 25.32 49.9206 26.7867 49.9206 28.28C49.9206 29.7467 50.1206 31.28 50.5206 32.88C50.9473 34.48 51.5873 35.9733 52.4406 37.36C53.294 38.7467 54.374 39.8667 55.6806 40.72C56.9873 41.5733 58.534 42 60.3206 42ZM87.2431 43.64C85.4565 43.64 83.8031 43.24 82.2831 42.44C80.7898 41.6133 79.5898 40.44 78.6831 38.92C77.8031 37.3733 77.3631 35.52 77.3631 33.36C77.3631 31.9733 77.6165 30.6267 78.1231 29.32C78.6298 28.0133 79.3365 26.84 80.2431 25.8C81.1765 24.7333 82.2831 23.8933 83.5631 23.28C84.8431 22.6667 86.2565 22.36 87.8031 22.36C89.2965 22.36 90.5898 22.5867 91.6831 23.04C92.8031 23.4933 93.6698 24.0933 94.2831 24.84C94.8965 25.5867 95.2031 26.4 95.2031 27.28C95.2031 27.8667 95.0431 28.3733 94.7231 28.8C94.4031 29.2 93.9365 29.4 93.3231 29.4C92.6565 29.4267 92.1765 29.2267 91.8831 28.8C91.6165 28.3467 91.4831 27.9467 91.4831 27.6C91.4831 27.3333 91.5231 27.0667 91.6031 26.8C91.6831 26.5067 91.8431 26.24 92.0831 26C91.8698 25.36 91.4965 24.8933 90.9631 24.6C90.4298 24.28 89.8698 24.08 89.2831 24C88.7231 23.8933 88.2565 23.84 87.8831 23.84C86.0698 23.84 84.5365 24.5733 83.2831 26.04C82.0565 27.48 81.4431 29.5867 81.4431 32.36C81.4431 34.1467 81.7231 35.7333 82.2831 37.12C82.8698 38.5067 83.6831 39.6 84.7231 40.4C85.7631 41.1733 86.9631 41.56 88.3231 41.56C89.5765 41.56 90.7765 41.2267 91.9231 40.56C93.0698 39.8933 93.9631 39.08 94.6031 38.12L95.6431 38.92C94.9498 40.04 94.1098 40.9467 93.1231 41.64C92.1631 42.3333 91.1631 42.84 90.1231 43.16C89.1098 43.48 88.1498 43.64 87.2431 43.64ZM108.257 43.64C106.417 43.64 104.75 43.2133 103.257 42.36C101.79 41.48 100.63 40.2533 99.7769 38.68C98.9236 37.08 98.4969 35.2 98.4969 33.04C98.4969 31.1733 98.9102 29.4267 99.7369 27.8C100.59 26.1733 101.777 24.8667 103.297 23.88C104.817 22.8667 106.577 22.36 108.577 22.36C109.697 22.36 110.737 22.5467 111.697 22.92C112.684 23.2667 113.55 23.8133 114.297 24.56C115.044 25.28 115.63 26.2 116.057 27.32C116.484 28.4133 116.697 29.7067 116.697 31.2L102.617 31.44C102.617 33.4667 102.83 35.2533 103.257 36.8C103.71 38.32 104.43 39.5067 105.417 40.36C106.404 41.1867 107.67 41.6 109.217 41.6C110.044 41.6 110.884 41.4533 111.737 41.16C112.617 40.8667 113.43 40.4667 114.177 39.96C114.924 39.4533 115.524 38.8933 115.977 38.28L116.937 39.08C116.217 40.2 115.35 41.0933 114.337 41.76C113.324 42.4267 112.284 42.9067 111.217 43.2C110.15 43.4933 109.164 43.64 108.257 43.64ZM102.737 29.76H112.937C112.937 28.8 112.79 27.88 112.497 27C112.23 26.0933 111.777 25.36 111.137 24.8C110.497 24.2133 109.657 23.92 108.617 23.92C107.07 23.92 105.777 24.3867 104.737 25.32C103.724 26.2267 103.057 27.7067 102.737 29.76ZM132.338 43C132.258 42.5467 132.205 42.1467 132.178 41.8C132.152 41.4533 132.112 41.0933 132.058 40.72C131.152 41.6267 130.165 42.3467 129.098 42.88C128.058 43.3867 126.952 43.64 125.778 43.64C123.752 43.64 122.245 43.1867 121.258 42.28C120.272 41.3467 119.778 40.2133 119.778 38.88C119.778 37.6533 120.152 36.6 120.898 35.72C121.672 34.8133 122.658 34.08 123.858 33.52C125.085 32.9333 126.405 32.5067 127.818 32.24C129.258 31.9467 130.645 31.8133 131.978 31.84V29.36C131.978 28.4267 131.898 27.5467 131.738 26.72C131.578 25.8933 131.232 25.2133 130.698 24.68C130.165 24.1467 129.312 23.8667 128.138 23.84C127.365 23.8133 126.565 23.96 125.738 24.28C124.938 24.6 124.352 25.1467 123.978 25.92C124.192 26.1333 124.325 26.3867 124.378 26.68C124.458 26.9467 124.498 27.2 124.498 27.44C124.498 27.76 124.365 28.1333 124.098 28.56C123.832 28.96 123.365 29.1467 122.698 29.12C122.138 29.12 121.712 28.9333 121.418 28.56C121.125 28.16 120.978 27.6933 120.978 27.16C120.978 26.2533 121.312 25.44 121.978 24.72C122.672 24 123.618 23.4267 124.818 23C126.018 22.5733 127.378 22.36 128.898 22.36C131.138 22.36 132.792 22.96 133.858 24.16C134.925 25.3333 135.445 27.2 135.418 29.76C135.418 30.7467 135.418 31.7467 135.418 32.76C135.418 33.7467 135.405 34.7467 135.378 35.76C135.378 36.7467 135.378 37.7467 135.378 38.76C135.378 39.1867 135.365 39.6133 135.338 40.04C135.312 40.4667 135.272 40.9467 135.218 41.48C135.698 41.4533 136.165 41.4267 136.618 41.4C137.098 41.3733 137.578 41.3467 138.058 41.32V43H132.338ZM131.978 33.2C131.072 33.2267 130.112 33.3467 129.098 33.56C128.112 33.7467 127.192 34.04 126.338 34.44C125.512 34.84 124.832 35.3733 124.298 36.04C123.792 36.68 123.552 37.4667 123.578 38.4C123.632 39.3867 123.952 40.1333 124.538 40.64C125.152 41.12 125.872 41.36 126.698 41.36C127.792 41.36 128.738 41.16 129.538 40.76C130.365 40.3333 131.178 39.7467 131.978 39C131.952 38.7067 131.938 38.3867 131.938 38.04C131.938 37.6933 131.938 37.3333 131.938 36.96C131.938 36.8267 131.938 36.4 131.938 35.68C131.965 34.96 131.978 34.1333 131.978 33.2ZM140.803 43V41.8C141.63 41.8 142.203 41.6 142.523 41.2C142.843 40.7733 143.03 40.2 143.083 39.48C143.137 38.7333 143.163 37.88 143.163 36.92L143.203 27.8C143.203 27.3733 143.203 26.9467 143.203 26.52C143.23 26.0933 143.283 25.6533 143.363 25.2C142.883 25.2267 142.403 25.2533 141.923 25.28C141.47 25.3067 141.003 25.3333 140.523 25.36V23.68C141.697 23.68 142.577 23.6267 143.163 23.52C143.777 23.4133 144.23 23.28 144.523 23.12C144.817 22.96 145.057 22.7867 145.243 22.6H146.403C146.43 22.7867 146.443 23 146.443 23.24C146.47 23.48 146.497 23.7467 146.523 24.04C146.55 24.3333 146.563 24.6667 146.563 25.04C147.15 24.5333 147.79 24.08 148.483 23.68C149.203 23.28 149.95 22.96 150.723 22.72C151.523 22.48 152.31 22.36 153.083 22.36C155.403 22.36 157.097 23.0933 158.163 24.56C159.23 26 159.763 28.2533 159.763 31.32V38.76C159.763 39.2933 159.75 39.7733 159.723 40.2C159.723 40.6 159.683 41.0267 159.603 41.48C160.03 41.4533 160.443 41.44 160.843 41.44C161.27 41.4133 161.697 41.3867 162.123 41.36V43H153.963V41.8C154.79 41.8 155.363 41.6 155.683 41.2C156.003 40.7733 156.19 40.2 156.243 39.48C156.297 38.7333 156.323 37.88 156.323 36.92V31.32C156.297 29.0267 155.91 27.2933 155.163 26.12C154.443 24.9467 153.297 24.3733 151.723 24.4C150.763 24.4267 149.817 24.68 148.883 25.16C147.977 25.64 147.217 26.2533 146.603 27C146.63 27.2133 146.643 27.4533 146.643 27.72C146.643 27.9867 146.643 28.2667 146.643 28.56L146.603 38.76C146.603 39.2933 146.59 39.7733 146.563 40.2C146.563 40.6 146.523 41.0267 146.443 41.48C146.87 41.4533 147.283 41.44 147.683 41.44C148.11 41.4133 148.537 41.3867 148.963 41.36V43H140.803Z" fill="#99A6BF"/>
</svg>
