<svg width="156" height="56" viewBox="0 0 156 56" fill="none" xmlns="http://www.w3.org/2000/svg">
<mask id="mask0_2014_3800" style="mask-type:luminance" maskUnits="userSpaceOnUse" x="10" y="9" width="19" height="17">
<path d="M13.0361 24.1451L19.8023 12.4065L25.9987 23.1579C25.6174 23.1515 25.2353 23.1492 24.8548 23.1492C24.6586 23.1492 24.4605 23.1501 24.2602 23.1515L20.8429 17.2217L19.8023 15.4165L18.7608 17.2217L14.9477 23.8375C14.3026 23.9307 13.6641 24.0335 13.0361 24.1451ZM19.8023 17.8235L23.5713 24.364C23.9969 24.3559 24.4243 24.3527 24.8548 24.3527C25.9578 24.3527 27.0465 24.3777 28.1176 24.4259L19.8023 9.99925L10.6649 25.8516C12.2521 25.4891 13.9352 25.1856 15.6952 24.9489L19.8023 17.8235Z" fill="white"/>
</mask>
<g mask="url(#mask0_2014_3800)">
<path d="M13.0361 24.1451L19.8023 12.4065L25.9987 23.1579C25.6174 23.1515 25.2353 23.1492 24.8548 23.1492C24.6586 23.1492 24.4605 23.1501 24.2602 23.1515L20.8429 17.2217L19.8023 15.4165L18.7608 17.2217L14.9477 23.8375C14.3026 23.9307 13.6641 24.0335 13.0361 24.1451ZM19.8023 17.8235L23.5713 24.364C23.9969 24.3559 24.4243 24.3527 24.8548 24.3527C25.9578 24.3527 27.0465 24.3777 28.1176 24.4259L19.8023 9.99925L10.6649 25.8516C12.2521 25.4891 13.9352 25.1856 15.6952 24.9489L19.8023 17.8235Z" fill="#99A6BF"/>
</g>
<mask id="mask1_2014_3800" style="mask-type:luminance" maskUnits="userSpaceOnUse" x="0" y="25" width="44" height="21">
<path d="M25.2074 27.19L27.5467 31.2484H12.0842C15.3588 29.419 19.9115 27.9933 25.2074 27.19ZM14.2057 46C9.49291 43.9255 6.61259 41.1494 6.61259 38.0994C6.61259 37.0841 6.93153 36.0995 7.53114 35.1606H34.312L29.4331 26.6966C31.2893 26.5421 33.2116 26.4608 35.1801 26.4608C37.8316 26.4608 40.3994 26.608 42.8349 26.8839C42.6946 26.8383 42.5499 26.795 42.407 26.7509C42.5499 26.795 42.6949 26.8383 42.8349 26.8839C42.9985 26.9022 43.1611 26.9211 43.3238 26.9405C42.8944 26.8316 42.4574 26.7277 42.0126 26.6283C42.0124 26.6283 42.0121 26.628 42.0118 26.628C38.0337 25.7396 33.4566 25.2308 28.5853 25.2256C28.5563 25.225 28.527 25.225 28.4983 25.225C27.3895 25.225 26.2958 25.2512 25.2213 25.302C24.8632 25.3188 24.5069 25.3386 24.1526 25.3609C20.7585 25.5741 17.5679 26.0338 14.6971 26.6931C14.4492 26.75 14.2037 26.8084 13.9604 26.8682C12.2584 27.2876 10.6773 27.7784 9.24356 28.3305C3.95205 30.3646 0.657104 33.2305 0.657104 36.4048C0.657104 40.4803 6.08895 44.0469 14.2057 46Z" fill="white"/>
</mask>
<g mask="url(#mask1_2014_3800)">
<path d="M25.2074 27.19L27.5467 31.2484H12.0842C15.3588 29.419 19.9115 27.9933 25.2074 27.19ZM14.2057 46C9.49291 43.9255 6.61259 41.1494 6.61259 38.0994C6.61259 37.0841 6.93153 36.0995 7.53114 35.1606H34.312L29.4331 26.6966C31.2893 26.5421 33.2116 26.4608 35.1801 26.4608C37.8316 26.4608 40.3994 26.608 42.8349 26.8839C42.6946 26.8383 42.5499 26.795 42.407 26.7509C42.5499 26.795 42.6949 26.8383 42.8349 26.8839C42.9985 26.9022 43.1611 26.9211 43.3238 26.9405C42.8944 26.8316 42.4574 26.7277 42.0126 26.6283C42.0124 26.6283 42.0121 26.628 42.0118 26.628C38.0337 25.7396 33.4566 25.2308 28.5853 25.2256C28.5563 25.225 28.527 25.225 28.4983 25.225C27.3895 25.225 26.2958 25.2512 25.2213 25.302C24.8632 25.3188 24.5069 25.3386 24.1526 25.3609C20.7585 25.5741 17.5679 26.0338 14.6971 26.6931C14.4492 26.75 14.2037 26.8084 13.9604 26.8682C12.2584 27.2876 10.6773 27.7784 9.24356 28.3305C3.95205 30.3646 0.657104 33.2305 0.657104 36.4048C0.657104 40.4803 6.08895 44.0469 14.2057 46Z" fill="#99A6BF"/>
</g>
<path d="M69.2438 23.48C69.1638 22.2 68.8571 20.9867 68.3238 19.84C67.7905 18.6933 67.0171 17.76 66.0038 17.04C64.9905 16.32 63.6971 15.96 62.1238 15.96C60.4705 15.96 59.2038 16.4267 58.3238 17.36C57.4438 18.2933 57.0038 19.3867 57.0038 20.64C57.0038 21.76 57.3238 22.7067 57.9638 23.48C58.6038 24.2267 59.4305 24.8933 60.4438 25.48C61.4838 26.04 62.5771 26.5867 63.7238 27.12C64.7371 27.5733 65.7505 28.0667 66.7638 28.6C67.7771 29.1067 68.6971 29.6933 69.5238 30.36C70.3505 31.0267 71.0038 31.8267 71.4838 32.76C71.9905 33.6667 72.2438 34.76 72.2438 36.04C72.2438 37.5067 71.8705 38.8133 71.1238 39.96C70.4038 41.1067 69.3505 42.0133 67.9638 42.68C66.5771 43.32 64.8838 43.64 62.8838 43.64C61.6838 43.64 60.4438 43.4667 59.1638 43.12C57.8838 42.7733 56.7505 42.2667 55.7638 41.6L55.9638 43.32H53.8838L53.6438 34.8H55.2038C55.3371 37.1467 56.1505 38.9333 57.6438 40.16C59.1371 41.36 60.9371 41.96 63.0438 41.96C64.0838 41.96 65.0438 41.7733 65.9238 41.4C66.8038 41 67.4971 40.4267 68.0038 39.68C68.5371 38.9333 68.8038 38.0267 68.8038 36.96C68.8038 35.76 68.4838 34.76 67.8438 33.96C67.2038 33.16 66.3771 32.4667 65.3638 31.88C64.3505 31.2933 63.2705 30.7333 62.1238 30.2C61.1105 29.7467 60.1105 29.2667 59.1238 28.76C58.1371 28.2533 57.2305 27.68 56.4038 27.04C55.6038 26.3733 54.9505 25.5867 54.4438 24.68C53.9638 23.7733 53.7238 22.68 53.7238 21.4C53.7238 20.7067 53.8438 19.96 54.0838 19.16C54.3238 18.36 54.7371 17.6 55.3238 16.88C55.9371 16.1333 56.7638 15.5333 57.8038 15.08C58.8705 14.6 60.2171 14.36 61.8438 14.36C62.8571 14.36 63.9905 14.5067 65.2438 14.8C66.5238 15.0667 67.7105 15.6 68.8038 16.4L68.6438 14.68H70.6838V23.48H69.2438ZM75.5447 41.8C76.3714 41.8 76.9447 41.6 77.2647 41.2C77.5847 40.7733 77.7714 40.2 77.8247 39.48C77.8781 38.7333 77.9047 37.88 77.9047 36.92V27.8C77.9047 27.3733 77.9181 26.9733 77.9447 26.6C77.9714 26.2 78.0114 25.7333 78.0647 25.2C77.5847 25.2267 77.1047 25.2533 76.6247 25.28C76.1714 25.3067 75.7047 25.3333 75.2247 25.36V23.68C76.3981 23.68 77.3047 23.6267 77.9447 23.52C78.5847 23.4133 79.0647 23.28 79.3847 23.12C79.7314 22.96 79.9981 22.7867 80.1847 22.6H81.3447V38.76C81.3447 39.2933 81.3314 39.7733 81.3047 40.2C81.3047 40.6 81.2647 41.0267 81.1847 41.48C81.6114 41.4533 82.0247 41.44 82.4247 41.44C82.8514 41.4133 83.2781 41.3867 83.7047 41.36V43H75.5447V41.8ZM79.4247 18.64C78.8647 18.64 78.3714 18.4133 77.9447 17.96C77.5181 17.5067 77.3047 16.9467 77.3047 16.28C77.3047 15.6133 77.5181 15.0533 77.9447 14.6C78.3981 14.12 78.9047 13.88 79.4647 13.88C80.0781 13.88 80.5847 14.12 80.9847 14.6C81.4114 15.0533 81.6247 15.6133 81.6247 16.28C81.6247 16.9467 81.3981 17.5067 80.9447 17.96C80.5181 18.4133 80.0114 18.64 79.4247 18.64ZM86.3947 41.8C87.2214 41.8 87.7947 41.6 88.1147 41.2C88.4347 40.7733 88.6214 40.2 88.6747 39.48C88.7281 38.7333 88.7547 37.88 88.7547 36.92V18C88.7547 17.5733 88.7547 17.1733 88.7547 16.8C88.7814 16.4 88.8214 15.9333 88.8747 15.4C88.3947 15.4267 87.9147 15.4533 87.4347 15.48C86.9814 15.5067 86.5147 15.5333 86.0347 15.56V13.88C87.2081 13.88 88.1147 13.8267 88.7547 13.72C89.4214 13.6133 89.9147 13.48 90.2347 13.32C90.5814 13.16 90.8481 12.9867 91.0347 12.8H92.1947L92.2347 38.76C92.2347 39.2933 92.2214 39.7733 92.1947 40.2C92.1681 40.6 92.1147 41.0267 92.0347 41.48C92.4614 41.4533 92.8747 41.44 93.2747 41.44C93.7014 41.4133 94.1281 41.3867 94.5547 41.36V43H86.3947V41.8ZM105.137 43.12L99.4169 30.08C98.9902 29.0667 98.6569 28.2 98.4169 27.48C98.1769 26.76 98.0036 26.16 97.8969 25.68C97.8169 25.2 97.7636 24.8133 97.7369 24.52L96.0169 24.64V23H103.377V24.2C102.577 24.2 102.057 24.4133 101.817 24.84C101.604 25.24 101.577 25.7867 101.737 26.48C101.897 27.1467 102.137 27.8667 102.457 28.64L105.537 35.68C105.75 36.1333 105.95 36.6133 106.137 37.12C106.35 37.6 106.55 38.1067 106.737 38.64H106.777C106.91 38.24 107.057 37.8133 107.217 37.36C107.404 36.9067 107.564 36.4667 107.697 36.04L110.897 27.28C111.11 26.64 111.337 26.08 111.577 25.6C111.817 25.12 111.99 24.76 112.097 24.52L109.537 24.64V23H115.857V24.2C115.27 24.2 114.777 24.4 114.377 24.8C113.977 25.2 113.59 25.8 113.217 26.6C112.87 27.4 112.457 28.4 111.977 29.6L106.737 43.12H105.137ZM127.217 43.64C125.377 43.64 123.71 43.2133 122.217 42.36C120.75 41.48 119.59 40.2533 118.737 38.68C117.884 37.08 117.457 35.2 117.457 33.04C117.457 31.1733 117.87 29.4267 118.697 27.8C119.55 26.1733 120.737 24.8667 122.257 23.88C123.777 22.8667 125.537 22.36 127.537 22.36C128.657 22.36 129.697 22.5467 130.657 22.92C131.644 23.2667 132.51 23.8133 133.257 24.56C134.004 25.28 134.59 26.2 135.017 27.32C135.444 28.4133 135.657 29.7067 135.657 31.2L121.577 31.44C121.577 33.4667 121.79 35.2533 122.217 36.8C122.67 38.32 123.39 39.5067 124.377 40.36C125.364 41.1867 126.63 41.6 128.177 41.6C129.004 41.6 129.844 41.4533 130.697 41.16C131.577 40.8667 132.39 40.4667 133.137 39.96C133.884 39.4533 134.484 38.8933 134.937 38.28L135.897 39.08C135.177 40.2 134.31 41.0933 133.297 41.76C132.284 42.4267 131.244 42.9067 130.177 43.2C129.11 43.4933 128.124 43.64 127.217 43.64ZM121.697 29.76H131.897C131.897 28.8 131.75 27.88 131.457 27C131.19 26.0933 130.737 25.36 130.097 24.8C129.457 24.2133 128.617 23.92 127.577 23.92C126.03 23.92 124.737 24.3867 123.697 25.32C122.684 26.2267 122.017 27.7067 121.697 29.76ZM139.217 41.8C140.043 41.8 140.617 41.6 140.937 41.2C141.257 40.7733 141.443 40.2 141.497 39.48C141.55 38.7333 141.577 37.88 141.577 36.92V27.8C141.577 27.3733 141.577 26.9467 141.577 26.52C141.603 26.0933 141.657 25.6533 141.737 25.2C141.257 25.2267 140.777 25.2533 140.297 25.28C139.843 25.28 139.377 25.2933 138.897 25.32V23.68H140.137C141.283 23.68 142.07 23.5733 142.497 23.36C142.95 23.12 143.323 22.8667 143.617 22.6H144.777C144.83 23.0267 144.87 23.56 144.897 24.2C144.923 24.8133 144.95 25.6 144.977 26.56C145.377 25.8933 145.923 25.24 146.617 24.6C147.31 23.96 148.083 23.4267 148.937 23C149.817 22.5733 150.737 22.36 151.697 22.36C152.443 22.36 153.097 22.56 153.657 22.96C154.217 23.36 154.497 24 154.497 24.88C154.497 25.0933 154.43 25.36 154.297 25.68C154.163 25.9733 153.95 26.24 153.657 26.48C153.363 26.6933 152.977 26.8 152.497 26.8C151.91 26.7733 151.443 26.5467 151.097 26.12C150.75 25.6667 150.617 25.1467 150.697 24.56C150.03 24.5333 149.337 24.7067 148.617 25.08C147.923 25.4533 147.27 25.9733 146.657 26.64C146.043 27.28 145.497 28.04 145.017 28.92L145.057 38.76C145.057 39.2933 145.043 39.7733 145.017 40.2C145.017 40.6 144.977 41.0267 144.897 41.48C145.323 41.4533 145.737 41.44 146.137 41.44C146.563 41.4133 146.99 41.3867 147.417 41.36V43H139.217V41.8Z" fill="#99A6BF"/>
</svg>
