<svg width="158" height="56" viewBox="0 0 158 56" fill="none" xmlns="http://www.w3.org/2000/svg">
<mask id="mask0_2014_3842" style="mask-type:luminance" maskUnits="userSpaceOnUse" x="21" y="21" width="7" height="8">
<path d="M25.7589 21.4239L21.0145 26.1685L22.8467 28.001L27.5916 23.2564L25.7589 21.4239Z" fill="white"/>
</mask>
<g mask="url(#mask0_2014_3842)">
<path d="M25.7589 21.4239L21.0145 26.1685L22.8467 28.001L27.5916 23.2564L25.7589 21.4239Z" fill="#99A6BF"/>
</g>
<mask id="mask1_2014_3842" style="mask-type:luminance" maskUnits="userSpaceOnUse" x="11" y="31" width="8" height="7">
<path d="M16.1687 31.0167L11.4238 35.7613L13.2566 37.5938L18.0012 32.8491L16.1687 31.0167Z" fill="white"/>
</mask>
<g mask="url(#mask1_2014_3842)">
<path d="M16.1687 31.0167L11.4238 35.7613L13.2566 37.5938L18.0012 32.8491L16.1687 31.0167Z" fill="#99A6BF"/>
</g>
<mask id="mask2_2014_3842" style="mask-type:luminance" maskUnits="userSpaceOnUse" x="18" y="18" width="7" height="7">
<path d="M19.8326 24.9863L24.5772 20.2417L22.745 18.409L18.0001 23.1539L19.8326 24.9863Z" fill="white"/>
</mask>
<g mask="url(#mask2_2014_3842)">
<path d="M19.8326 24.9863L24.5772 20.2417L22.745 18.409L18.0001 23.1539L19.8326 24.9863Z" fill="#99A6BF"/>
</g>
<mask id="mask3_2014_3842" style="mask-type:luminance" maskUnits="userSpaceOnUse" x="8" y="28" width="7" height="7">
<path d="M14.9878 29.8345L13.155 28.0017L8.4104 32.7466L10.2429 34.5791L14.9878 29.8345Z" fill="white"/>
</mask>
<g mask="url(#mask3_2014_3842)">
<path d="M14.9878 29.8345L13.155 28.0017L8.4104 32.7466L10.2429 34.5791L14.9878 29.8345Z" fill="#99A6BF"/>
</g>
<mask id="mask4_2014_3842" style="mask-type:luminance" maskUnits="userSpaceOnUse" x="8" y="21" width="7" height="8">
<path d="M14.9875 26.1685L10.2426 21.4239L8.41016 23.2564L13.1548 28.001L14.9875 26.1685Z" fill="white"/>
</mask>
<g mask="url(#mask4_2014_3842)">
<path d="M14.9875 26.1685L10.2426 21.4239L8.41016 23.2564L13.1548 28.001L14.9875 26.1685Z" fill="#99A6BF"/>
</g>
<mask id="mask5_2014_3842" style="mask-type:luminance" maskUnits="userSpaceOnUse" x="11" y="18" width="8" height="7">
<path d="M16.1684 24.9863L18.0008 23.1539L13.2562 18.409L11.4235 20.2417L16.1684 24.9863Z" fill="white"/>
</mask>
<g mask="url(#mask5_2014_3842)">
<path d="M16.1684 24.9863L18.0008 23.1539L13.2562 18.409L11.4235 20.2417L16.1684 24.9863Z" fill="#99A6BF"/>
</g>
<mask id="mask6_2014_3842" style="mask-type:luminance" maskUnits="userSpaceOnUse" x="21" y="28" width="7" height="7">
<path d="M21.0145 29.8345L25.7589 34.5791L27.5916 32.7466L22.8467 28.0017L21.0145 29.8345Z" fill="white"/>
</mask>
<g mask="url(#mask6_2014_3842)">
<path d="M21.0145 29.8345L25.7589 34.5791L27.5916 32.7466L22.8467 28.0017L21.0145 29.8345Z" fill="#99A6BF"/>
</g>
<mask id="mask7_2014_3842" style="mask-type:luminance" maskUnits="userSpaceOnUse" x="18" y="31" width="7" height="7">
<path d="M24.5772 35.7613L19.8326 31.0167L18.0001 32.8491L22.745 37.5938L24.5772 35.7613Z" fill="white"/>
</mask>
<g mask="url(#mask7_2014_3842)">
<path d="M24.5772 35.7613L19.8326 31.0167L18.0001 32.8491L22.745 37.5938L24.5772 35.7613Z" fill="#99A6BF"/>
</g>
<mask id="mask8_2014_3842" style="mask-type:luminance" maskUnits="userSpaceOnUse" x="11" y="37" width="14" height="9">
<path d="M24.5779 39.4226L22.7457 37.5902L18.0008 42.3351L13.2562 37.5902L11.4235 39.4226L18.0008 46L24.5779 39.4226Z" fill="white"/>
</mask>
<g mask="url(#mask8_2014_3842)">
<path d="M24.5779 39.4226L22.7457 37.5902L18.0008 42.3351L13.2562 37.5902L11.4235 39.4226L18.0008 46L24.5779 39.4226Z" fill="#99A6BF"/>
</g>
<mask id="mask9_2014_3842" style="mask-type:luminance" maskUnits="userSpaceOnUse" x="-1" y="21" width="10" height="14">
<path d="M8.40895 23.2581L6.5765 21.4256L-0.000854492 28.0027L6.5765 34.5801L8.40895 32.7476L3.66433 28.0027L8.40895 23.2581Z" fill="white"/>
</mask>
<g mask="url(#mask9_2014_3842)">
<path d="M8.40895 23.2581L6.5765 21.4256L-0.000854492 28.0027L6.5765 34.5801L8.40895 32.7476L3.66433 28.0027L8.40895 23.2581Z" fill="#99A6BF"/>
</g>
<mask id="mask10_2014_3842" style="mask-type:luminance" maskUnits="userSpaceOnUse" x="27" y="21" width="9" height="14">
<path d="M29.4229 21.4247L27.5905 23.2571L32.3351 28.0017L27.5905 32.7466L29.4229 34.5791L36 28.0017L29.4229 21.4247Z" fill="white"/>
</mask>
<g mask="url(#mask10_2014_3842)">
<path d="M29.4229 21.4247L27.5905 23.2571L32.3351 28.0017L27.5905 32.7466L29.4229 34.5791L36 28.0017L29.4229 21.4247Z" fill="#99A6BF"/>
</g>
<mask id="mask11_2014_3842" style="mask-type:luminance" maskUnits="userSpaceOnUse" x="11" y="10" width="14" height="9">
<path d="M22.7458 18.4111L24.578 16.5787L18.0009 10.0013L11.4236 16.5787L13.2563 18.4111L18.0009 13.6665L22.7458 18.4111Z" fill="white"/>
</mask>
<g mask="url(#mask11_2014_3842)">
<path d="M22.7458 18.4111L24.578 16.5787L18.0009 10.0013L11.4236 16.5787L13.2563 18.4111L18.0009 13.6665L22.7458 18.4111Z" fill="#99A6BF"/>
</g>
<path d="M61.92 23.48C61.84 22.2 61.5333 20.9867 61 19.84C60.4667 18.6933 59.6933 17.76 58.68 17.04C57.6667 16.32 56.3733 15.96 54.8 15.96C53.1467 15.96 51.88 16.4267 51 17.36C50.12 18.2933 49.68 19.3867 49.68 20.64C49.68 21.76 50 22.7067 50.64 23.48C51.28 24.2267 52.1067 24.8933 53.12 25.48C54.16 26.04 55.2533 26.5867 56.4 27.12C57.4133 27.5733 58.4267 28.0667 59.44 28.6C60.4533 29.1067 61.3733 29.6933 62.2 30.36C63.0267 31.0267 63.68 31.8267 64.16 32.76C64.6667 33.6667 64.92 34.76 64.92 36.04C64.92 37.5067 64.5467 38.8133 63.8 39.96C63.08 41.1067 62.0267 42.0133 60.64 42.68C59.2533 43.32 57.56 43.64 55.56 43.64C54.36 43.64 53.12 43.4667 51.84 43.12C50.56 42.7733 49.4267 42.2667 48.44 41.6L48.64 43.32H46.56L46.32 34.8H47.88C48.0133 37.1467 48.8267 38.9333 50.32 40.16C51.8133 41.36 53.6133 41.96 55.72 41.96C56.76 41.96 57.72 41.7733 58.6 41.4C59.48 41 60.1733 40.4267 60.68 39.68C61.2133 38.9333 61.48 38.0267 61.48 36.96C61.48 35.76 61.16 34.76 60.52 33.96C59.88 33.16 59.0533 32.4667 58.04 31.88C57.0267 31.2933 55.9467 30.7333 54.8 30.2C53.7867 29.7467 52.7867 29.2667 51.8 28.76C50.8133 28.2533 49.9067 27.68 49.08 27.04C48.28 26.3733 47.6267 25.5867 47.12 24.68C46.64 23.7733 46.4 22.68 46.4 21.4C46.4 20.7067 46.52 19.96 46.76 19.16C47 18.36 47.4133 17.6 48 16.88C48.6133 16.1333 49.44 15.5333 50.48 15.08C51.5467 14.6 52.8933 14.36 54.52 14.36C55.5333 14.36 56.6667 14.5067 57.92 14.8C59.2 15.0667 60.3867 15.6 61.48 16.4L61.32 14.68H63.36V23.48H61.92ZM75.14 43.12L69.9 27.76C69.7133 27.2 69.54 26.72 69.38 26.32C69.2467 25.92 69.14 25.5733 69.06 25.28C68.98 24.9867 68.9133 24.7333 68.86 24.52L66.74 24.64V23H75.22V24.2C74.02 24.2267 73.3533 24.64 73.22 25.44C73.1133 26.2133 73.2733 27.24 73.7 28.52L75.54 34.12C75.7533 34.76 75.9667 35.4133 76.18 36.08C76.3933 36.72 76.6067 37.36 76.82 38C77.06 37.28 77.3 36.56 77.54 35.84C77.8067 35.0933 78.06 34.3467 78.3 33.6L81.86 23H83.5L87.54 34.64C87.7533 35.2267 87.9667 35.8267 88.18 36.44C88.3933 37.0533 88.6067 37.6667 88.82 38.28C89.0333 37.6933 89.2333 37.12 89.42 36.56C89.6333 35.9733 89.8333 35.3867 90.02 34.8L92.66 27.2C92.8467 26.6667 93.0333 26.16 93.22 25.68C93.4067 25.2 93.62 24.8133 93.86 24.52L91.54 24.64V23H98.5V24.2C97.8067 24.2267 97.2333 24.32 96.78 24.48C96.3533 24.64 95.9933 24.8533 95.7 25.12C95.4067 25.3867 95.1667 25.7067 94.98 26.08C94.7933 26.4533 94.62 26.88 94.46 27.36L88.7 43.12H87.1L83.3 32.2C83.14 31.72 82.98 31.2533 82.82 30.8C82.66 30.32 82.5 29.8533 82.34 29.4C82.18 28.92 82.02 28.4533 81.86 28C81.7 28.4533 81.54 28.92 81.38 29.4C81.22 29.8533 81.06 30.32 80.9 30.8C80.74 31.2533 80.58 31.72 80.42 32.2L76.66 43.12H75.14ZM100.291 41.8C101.118 41.8 101.691 41.6 102.011 41.2C102.331 40.7733 102.518 40.2 102.571 39.48C102.625 38.7333 102.651 37.88 102.651 36.92V27.8C102.651 27.3733 102.665 26.9733 102.691 26.6C102.718 26.2 102.758 25.7333 102.811 25.2C102.331 25.2267 101.851 25.2533 101.371 25.28C100.918 25.3067 100.451 25.3333 99.9713 25.36V23.68C101.145 23.68 102.051 23.6267 102.691 23.52C103.331 23.4133 103.811 23.28 104.131 23.12C104.478 22.96 104.745 22.7867 104.931 22.6H106.091V38.76C106.091 39.2933 106.078 39.7733 106.051 40.2C106.051 40.6 106.011 41.0267 105.931 41.48C106.358 41.4533 106.771 41.44 107.171 41.44C107.598 41.4133 108.025 41.3867 108.451 41.36V43H100.291V41.8ZM104.171 18.64C103.611 18.64 103.118 18.4133 102.691 17.96C102.265 17.5067 102.051 16.9467 102.051 16.28C102.051 15.6133 102.265 15.0533 102.691 14.6C103.145 14.12 103.651 13.88 104.211 13.88C104.825 13.88 105.331 14.12 105.731 14.6C106.158 15.0533 106.371 15.6133 106.371 16.28C106.371 16.9467 106.145 17.5067 105.691 17.96C105.265 18.4133 104.758 18.64 104.171 18.64ZM114.061 22.16C114.061 19.2 114.595 16.8667 115.661 15.16C116.755 13.4533 118.621 12.6 121.261 12.6C121.848 12.6 122.461 12.7067 123.101 12.92C123.768 13.1067 124.341 13.4267 124.821 13.88C125.301 14.3067 125.541 14.8667 125.541 15.56C125.541 16.0667 125.395 16.4933 125.101 16.84C124.835 17.1867 124.435 17.36 123.901 17.36C123.261 17.3867 122.808 17.2 122.541 16.8C122.301 16.3733 122.181 16.0133 122.181 15.72C122.181 15.56 122.195 15.4 122.221 15.24C122.248 15.08 122.301 14.9067 122.381 14.72C122.195 14.48 121.928 14.3067 121.581 14.2C121.261 14.0933 120.955 14.04 120.661 14.04C119.835 14.04 119.195 14.28 118.741 14.76C118.288 15.24 117.968 15.84 117.781 16.56C117.595 17.28 117.501 18.0267 117.501 18.8V23H122.901V24.56L117.501 24.68L117.541 38.76C117.541 39.2933 117.528 39.7733 117.501 40.2C117.501 40.6 117.461 41.0267 117.381 41.48C117.808 41.4533 118.221 41.44 118.621 41.44C119.048 41.4133 119.475 41.3867 119.901 41.36V43H111.741V41.8C112.568 41.8 113.141 41.6 113.461 41.2C113.781 40.7733 113.968 40.2 114.021 39.48C114.075 38.7333 114.101 37.88 114.101 36.92L114.061 24.72L110.781 24.8V23H114.061V22.16ZM133.046 43.64C132.432 43.64 131.806 43.5467 131.166 43.36C130.526 43.2 129.926 42.8667 129.366 42.36C128.832 41.8533 128.406 41.12 128.086 40.16C127.766 39.1733 127.606 37.88 127.606 36.28L127.686 24.68L124.606 24.72V23C125.299 22.9733 126.006 22.72 126.726 22.24C127.446 21.7333 128.086 21.0533 128.646 20.2C129.232 19.3467 129.632 18.4133 129.846 17.4H131.206V23H137.926V24.56L131.206 24.64L131.126 35.76C131.126 36.96 131.219 37.9867 131.406 38.84C131.619 39.6667 131.952 40.2933 132.406 40.72C132.859 41.1467 133.446 41.36 134.166 41.36C134.912 41.36 135.606 41.1467 136.246 40.72C136.912 40.2933 137.499 39.7067 138.006 38.96L139.086 39.84C138.499 40.72 137.912 41.4133 137.326 41.92C136.766 42.4267 136.219 42.8 135.686 43.04C135.152 43.3067 134.659 43.4667 134.206 43.52C133.752 43.6 133.366 43.64 133.046 43.64ZM149.194 43.64C147.861 43.64 146.674 43.4533 145.634 43.08C144.594 42.7333 143.741 42.3333 143.074 41.88L143.234 43.28H141.554L141.314 36.4H142.554C142.608 37.4933 142.914 38.48 143.474 39.36C144.034 40.2133 144.754 40.88 145.634 41.36C146.514 41.84 147.461 42.08 148.474 42.08C149.168 42.08 149.848 41.9733 150.514 41.76C151.181 41.52 151.741 41.1733 152.194 40.72C152.648 40.24 152.874 39.64 152.874 38.92C152.874 38.1733 152.648 37.56 152.194 37.08C151.768 36.5733 151.194 36.1333 150.474 35.76C149.754 35.3867 148.981 35.04 148.154 34.72C147.354 34.4 146.554 34.0667 145.754 33.72C144.954 33.3733 144.208 32.96 143.514 32.48C142.848 32 142.314 31.4133 141.914 30.72C141.514 30.0267 141.314 29.1733 141.314 28.16C141.314 27.6 141.421 26.9867 141.634 26.32C141.848 25.6533 142.208 25.0267 142.714 24.44C143.221 23.8267 143.914 23.3333 144.794 22.96C145.674 22.56 146.794 22.36 148.154 22.36C148.874 22.36 149.674 22.48 150.554 22.72C151.434 22.96 152.288 23.4133 153.114 24.08L153.034 22.56H154.714V29.56H153.434C153.381 28.6267 153.168 27.7333 152.794 26.88C152.421 26 151.874 25.28 151.154 24.72C150.434 24.1333 149.501 23.84 148.354 23.84C147.128 23.84 146.168 24.1467 145.474 24.76C144.781 25.3733 144.434 26.08 144.434 26.88C144.434 27.7067 144.688 28.4 145.194 28.96C145.728 29.4933 146.408 29.96 147.234 30.36C148.061 30.76 148.941 31.1467 149.874 31.52C150.888 31.9467 151.874 32.4133 152.834 32.92C153.794 33.4267 154.581 34.0667 155.194 34.84C155.808 35.5867 156.114 36.56 156.114 37.76C156.114 39.0933 155.768 40.2 155.074 41.08C154.408 41.96 153.541 42.6 152.474 43C151.434 43.4267 150.341 43.64 149.194 43.64Z" fill="#99A6BF"/>
</svg>
