<svg width="192" height="56" viewBox="0 0 192 56" fill="none" xmlns="http://www.w3.org/2000/svg">
<mask id="mask0_2014_3737" style="mask-type:luminance" maskUnits="userSpaceOnUse" x="0" y="10" width="23" height="35">
<path d="M17.3256 13.1027C17.3741 13.1035 17.4222 13.1063 17.4707 13.109C17.7491 13.1196 18.0322 13.1364 18.3231 13.1587C19.6356 13.2544 20.9039 13.4437 22.1052 13.7235V10.6925C20.8791 10.3825 19.5686 10.1755 18.2005 10.076C17.699 10.038 17.1687 10.0137 16.6211 10.0031C16.4756 10.0003 16.3278 10.0003 16.1776 10.0003C16.1728 10.0003 16.1685 10.0003 16.1638 10.0003C13.6027 10.0003 10.9659 10.3366 8.32829 10.9997C5.33076 11.7494 2.46214 12.9033 0 14.3463V44.3672C2.40024 43.0633 5.11391 42.0157 7.93127 41.3115C10.1569 40.7542 12.401 40.414 14.5993 40.3015L14.6206 40.3003H14.6301C14.6514 40.2991 14.6699 40.2983 14.6873 40.298C15.0638 40.2795 15.4391 40.2685 15.8255 40.2642V37.1917C12.9896 37.2199 10.0812 37.6024 7.17509 38.3294C6.12873 38.5923 5.11628 38.889 4.1669 39.2112L3.09334 39.5757V38.4481V16.6754V16.1667L3.55541 15.9476C5.28344 15.1277 7.14315 14.4654 9.0829 13.9794C11.0041 13.4978 12.9206 13.2054 14.7803 13.1106C14.819 13.1066 14.8521 13.1059 14.8761 13.1055C15.3059 13.0839 15.7392 13.0729 16.1638 13.0729C16.3211 13.0729 16.4756 13.0757 16.6298 13.078L16.6507 13.0784C16.8754 13.0839 17.1013 13.0894 17.3256 13.1027Z" fill="white"/>
</mask>
<g mask="url(#mask0_2014_3737)">
<path d="M17.3256 13.1027C17.3741 13.1035 17.4222 13.1063 17.4707 13.109C17.7491 13.1196 18.0322 13.1364 18.3231 13.1587C19.6356 13.2544 20.9039 13.4437 22.1052 13.7235V10.6925C20.8791 10.3825 19.5686 10.1755 18.2005 10.076C17.699 10.038 17.1687 10.0137 16.6211 10.0031C16.4756 10.0003 16.3278 10.0003 16.1776 10.0003C16.1728 10.0003 16.1685 10.0003 16.1638 10.0003C13.6027 10.0003 10.9659 10.3366 8.32829 10.9997C5.33076 11.7494 2.46214 12.9033 0 14.3463V44.3672C2.40024 43.0633 5.11391 42.0157 7.93127 41.3115C10.1569 40.7542 12.401 40.414 14.5993 40.3015L14.6206 40.3003H14.6301C14.6514 40.2991 14.6699 40.2983 14.6873 40.298C15.0638 40.2795 15.4391 40.2685 15.8255 40.2642V37.1917C12.9896 37.2199 10.0812 37.6024 7.17509 38.3294C6.12873 38.5923 5.11628 38.889 4.1669 39.2112L3.09334 39.5757V38.4481V16.6754V16.1667L3.55541 15.9476C5.28344 15.1277 7.14315 14.4654 9.0829 13.9794C11.0041 13.4978 12.9206 13.2054 14.7803 13.1106C14.819 13.1066 14.8521 13.1059 14.8761 13.1055C15.3059 13.0839 15.7392 13.0729 16.1638 13.0729C16.3211 13.0729 16.4756 13.0757 16.6298 13.078L16.6507 13.0784C16.8754 13.0839 17.1013 13.0894 17.3256 13.1027Z" fill="#99A6BF"/>
</g>
<mask id="mask1_2014_3737" style="mask-type:luminance" maskUnits="userSpaceOnUse" x="19" y="12" width="23" height="35">
<path d="M36.9774 16.7893L38.0486 16.4296V39.8378L37.5861 40.0568C35.8624 40.8732 34.0023 41.5343 32.0567 42.0223C29.6647 42.6234 27.2834 42.9284 24.9786 42.9284C24.2661 42.9284 23.5565 42.8986 22.8693 42.8394L22.1277 42.7755V42.036V41.9552V39.9408L22.1332 39.9463V19.5563V18.6956L22.9974 18.7513C23.6247 18.792 24.2732 18.8116 24.9786 18.8116C27.9288 18.8116 30.9528 18.4283 33.9669 17.6719C34.9801 17.4168 35.9933 17.1197 36.9774 16.7893ZM24.9786 16.2763C24.2681 16.2763 23.564 16.2512 22.8851 16.2015C22.0615 16.1415 21.2426 16.0447 20.4525 15.9134C19.9707 15.8319 19.4976 15.7374 19.0371 15.63V45.3081C20.8483 45.7682 22.8441 46.001 24.9786 46.001C27.5365 46.001 30.1733 45.6655 32.8152 45.0039C35.808 44.253 38.6759 43.0992 41.1396 41.6574V12.1718C38.7405 13.4757 36.0276 14.5241 33.2118 15.2303C30.4402 15.9244 27.6702 16.2763 24.9786 16.2763Z" fill="white"/>
</mask>
<g mask="url(#mask1_2014_3737)">
<path d="M36.9774 16.7893L38.0486 16.4296V39.8378L37.5861 40.0568C35.8624 40.8732 34.0023 41.5343 32.0567 42.0223C29.6647 42.6234 27.2834 42.9284 24.9786 42.9284C24.2661 42.9284 23.5565 42.8986 22.8693 42.8394L22.1277 42.7755V42.036V41.9552V39.9408L22.1332 39.9463V19.5563V18.6956L22.9974 18.7513C23.6247 18.792 24.2732 18.8116 24.9786 18.8116C27.9288 18.8116 30.9528 18.4283 33.9669 17.6719C34.9801 17.4168 35.9933 17.1197 36.9774 16.7893ZM24.9786 16.2763C24.2681 16.2763 23.564 16.2512 22.8851 16.2015C22.0615 16.1415 21.2426 16.0447 20.4525 15.9134C19.9707 15.8319 19.4976 15.7374 19.0371 15.63V45.3081C20.8483 45.7682 22.8441 46.001 24.9786 46.001C27.5365 46.001 30.1733 45.6655 32.8152 45.0039C35.808 44.253 38.6759 43.0992 41.1396 41.6574V12.1718C38.7405 13.4757 36.0276 14.5241 33.2118 15.2303C30.4402 15.9244 27.6702 16.2763 24.9786 16.2763Z" fill="#99A6BF"/>
</g>
<path d="M51.3396 41.68C52.3529 41.6267 53.0463 41.4 53.4196 41C53.7929 40.5733 53.9929 40 54.0196 39.28C54.0729 38.5333 54.0996 37.6933 54.0996 36.76V19.48C54.0996 18.9467 54.1129 18.44 54.1396 17.96C54.1663 17.4533 54.1929 17 54.2196 16.6C53.7396 16.6267 53.2596 16.6533 52.7796 16.68C52.2996 16.7067 51.8196 16.7333 51.3396 16.76V15C52.7529 14.9733 54.2063 14.96 55.6996 14.96C57.1929 14.9333 58.7129 14.92 60.2596 14.92C62.8463 14.92 65.0196 15.2133 66.7796 15.8C68.5396 16.3867 69.8863 17.2533 70.8196 18.4C71.7529 19.5467 72.2596 20.9733 72.3396 22.68C72.3929 23.72 72.2329 24.8133 71.8596 25.96C71.5129 27.08 70.8463 28.1467 69.8596 29.16C68.8996 30.1467 67.5396 30.9467 65.7796 31.56C64.0196 32.1733 61.7663 32.48 59.0196 32.48C58.9129 32.48 58.7129 32.48 58.4196 32.48C58.1263 32.48 57.8463 32.4667 57.5796 32.44V38.24C57.5796 38.96 57.5663 39.5867 57.5396 40.12C57.5396 40.6267 57.5129 41.0533 57.4596 41.4C57.8863 41.3733 58.2996 41.3467 58.6996 41.32C59.0996 41.2933 59.4996 41.28 59.8996 41.28C60.3263 41.2533 60.7396 41.2267 61.1396 41.2V43H51.3396V41.68ZM57.5796 30.8C58.0863 30.8533 58.5129 30.8933 58.8596 30.92C59.2329 30.92 59.6729 30.92 60.1796 30.92C61.6996 30.92 63.0863 30.6267 64.3396 30.04C65.5929 29.4267 66.5929 28.56 67.3396 27.44C68.0863 26.32 68.4596 24.9867 68.4596 23.44C68.4596 22.1867 68.2596 21.12 67.8596 20.24C67.4596 19.3333 66.8863 18.6133 66.1396 18.08C65.4196 17.52 64.5529 17.12 63.5396 16.88C62.5263 16.6133 61.4063 16.48 60.1796 16.48C59.2463 16.48 58.5929 16.68 58.2196 17.08C57.8729 17.48 57.6729 18.04 57.6196 18.76C57.5929 19.4533 57.5796 20.28 57.5796 21.24V30.8ZM75.1574 41.8C75.9841 41.8 76.5574 41.6 76.8774 41.2C77.1974 40.7733 77.3841 40.2 77.4374 39.48C77.4907 38.7333 77.5174 37.88 77.5174 36.92V27.8C77.5174 27.3733 77.5307 26.9733 77.5574 26.6C77.5841 26.2 77.6241 25.7333 77.6774 25.2C77.1974 25.2267 76.7174 25.2533 76.2374 25.28C75.7841 25.3067 75.3174 25.3333 74.8374 25.36V23.68C76.0107 23.68 76.9174 23.6267 77.5574 23.52C78.1974 23.4133 78.6774 23.28 78.9974 23.12C79.3441 22.96 79.6107 22.7867 79.7974 22.6H80.9574V38.76C80.9574 39.2933 80.9441 39.7733 80.9174 40.2C80.9174 40.6 80.8774 41.0267 80.7974 41.48C81.2241 41.4533 81.6374 41.44 82.0374 41.44C82.4641 41.4133 82.8907 41.3867 83.3174 41.36V43H75.1574V41.8ZM79.0374 18.64C78.4774 18.64 77.9841 18.4133 77.5574 17.96C77.1307 17.5067 76.9174 16.9467 76.9174 16.28C76.9174 15.6133 77.1307 15.0533 77.5574 14.6C78.0107 14.12 78.5174 13.88 79.0774 13.88C79.6907 13.88 80.1974 14.12 80.5974 14.6C81.0241 15.0533 81.2374 15.6133 81.2374 16.28C81.2374 16.9467 81.0107 17.5067 80.5574 17.96C80.1307 18.4133 79.6241 18.64 79.0374 18.64ZM85.6074 43V41.8C86.4341 41.5867 87.0874 41.24 87.5674 40.76C88.0474 40.2533 88.6607 39.52 89.4074 38.56L93.4074 33.36C93.0341 32.8533 92.5807 32.2533 92.0474 31.56C91.5141 30.84 91.0074 30.16 90.5274 29.52C90.0741 28.8533 89.7141 28.36 89.4474 28.04C88.8074 27.1867 88.3407 26.48 88.0474 25.92C87.7541 25.36 87.5407 24.9067 87.4074 24.56L85.5274 24.64V23H93.7674V24.2C92.5674 24.2267 91.8874 24.5067 91.7274 25.04C91.5941 25.5467 92.0207 26.48 93.0074 27.84L95.3274 31L98.9674 26.6C99.3674 26.12 99.7007 25.72 99.9674 25.4C100.234 25.0533 100.501 24.7467 100.767 24.48L98.0074 24.64V23H104.567V24.2C103.847 24.4133 103.234 24.6933 102.727 25.04C102.221 25.36 101.714 25.8 101.207 26.36C100.727 26.8933 100.127 27.6 99.4074 28.48L96.3274 32.16L101.847 39C102.141 39.4 102.434 39.7867 102.727 40.16C103.021 40.5333 103.314 40.9733 103.607 41.48L105.407 41.36V43H97.6874V41.8C98.3274 41.8 98.7807 41.6533 99.0474 41.36C99.3407 41.04 99.2074 40.5333 98.6474 39.84L94.4474 34.64L91.0874 39.24C90.6874 39.7733 90.3807 40.1733 90.1674 40.44C89.9541 40.7067 89.6474 41.0533 89.2474 41.48L92.3274 41.36V43H85.6074ZM117.103 43.64C115.263 43.64 113.596 43.2133 112.103 42.36C110.636 41.48 109.476 40.2533 108.623 38.68C107.77 37.08 107.343 35.2 107.343 33.04C107.343 31.1733 107.756 29.4267 108.583 27.8C109.436 26.1733 110.623 24.8667 112.143 23.88C113.663 22.8667 115.423 22.36 117.423 22.36C118.543 22.36 119.583 22.5467 120.543 22.92C121.53 23.2667 122.396 23.8133 123.143 24.56C123.89 25.28 124.476 26.2 124.903 27.32C125.33 28.4133 125.543 29.7067 125.543 31.2L111.463 31.44C111.463 33.4667 111.676 35.2533 112.103 36.8C112.556 38.32 113.276 39.5067 114.263 40.36C115.25 41.1867 116.516 41.6 118.063 41.6C118.89 41.6 119.73 41.4533 120.583 41.16C121.463 40.8667 122.276 40.4667 123.023 39.96C123.77 39.4533 124.37 38.8933 124.823 38.28L125.783 39.08C125.063 40.2 124.196 41.0933 123.183 41.76C122.17 42.4267 121.13 42.9067 120.063 43.2C118.996 43.4933 118.01 43.64 117.103 43.64ZM111.583 29.76H121.783C121.783 28.8 121.636 27.88 121.343 27C121.076 26.0933 120.623 25.36 119.983 24.8C119.343 24.2133 118.503 23.92 117.463 23.92C115.916 23.92 114.623 24.3867 113.583 25.32C112.57 26.2267 111.903 27.7067 111.583 29.76ZM128.703 41.8C129.529 41.8 130.103 41.6 130.423 41.2C130.743 40.7733 130.929 40.2 130.983 39.48C131.036 38.7333 131.063 37.88 131.063 36.92V18C131.063 17.5733 131.063 17.1733 131.063 16.8C131.089 16.4 131.129 15.9333 131.183 15.4C130.703 15.4267 130.223 15.4533 129.743 15.48C129.289 15.5067 128.823 15.5333 128.343 15.56V13.88C129.516 13.88 130.423 13.8267 131.063 13.72C131.729 13.6133 132.223 13.48 132.543 13.32C132.889 13.16 133.156 12.9867 133.343 12.8H134.503L134.543 38.76C134.543 39.2933 134.529 39.7733 134.503 40.2C134.476 40.6 134.423 41.0267 134.343 41.48C134.769 41.4533 135.183 41.44 135.583 41.44C136.009 41.4133 136.436 41.3867 136.863 41.36V43H128.703V41.8ZM146.686 43.12L141.446 27.76C141.259 27.2 141.086 26.72 140.926 26.32C140.793 25.92 140.686 25.5733 140.606 25.28C140.526 24.9867 140.459 24.7333 140.406 24.52L138.286 24.64V23H146.766V24.2C145.566 24.2267 144.899 24.64 144.766 25.44C144.659 26.2133 144.819 27.24 145.246 28.52L147.086 34.12C147.299 34.76 147.513 35.4133 147.726 36.08C147.939 36.72 148.153 37.36 148.366 38C148.606 37.28 148.846 36.56 149.086 35.84C149.353 35.0933 149.606 34.3467 149.846 33.6L153.406 23H155.046L159.086 34.64C159.299 35.2267 159.513 35.8267 159.726 36.44C159.939 37.0533 160.153 37.6667 160.366 38.28C160.579 37.6933 160.779 37.12 160.966 36.56C161.179 35.9733 161.379 35.3867 161.566 34.8L164.206 27.2C164.393 26.6667 164.579 26.16 164.766 25.68C164.953 25.2 165.166 24.8133 165.406 24.52L163.086 24.64V23H170.046V24.2C169.353 24.2267 168.779 24.32 168.326 24.48C167.899 24.64 167.539 24.8533 167.246 25.12C166.953 25.3867 166.713 25.7067 166.526 26.08C166.339 26.4533 166.166 26.88 166.006 27.36L160.246 43.12H158.646L154.846 32.2C154.686 31.72 154.526 31.2533 154.366 30.8C154.206 30.32 154.046 29.8533 153.886 29.4C153.726 28.92 153.566 28.4533 153.406 28C153.246 28.4533 153.086 28.92 152.926 29.4C152.766 29.8533 152.606 30.32 152.446 30.8C152.286 31.2533 152.126 31.72 151.966 32.2L148.206 43.12H146.686ZM183.606 43C183.526 42.5467 183.473 42.1467 183.446 41.8C183.42 41.4533 183.38 41.0933 183.326 40.72C182.42 41.6267 181.433 42.3467 180.366 42.88C179.326 43.3867 178.22 43.64 177.046 43.64C175.02 43.64 173.513 43.1867 172.526 42.28C171.54 41.3467 171.046 40.2133 171.046 38.88C171.046 37.6533 171.42 36.6 172.166 35.72C172.94 34.8133 173.926 34.08 175.126 33.52C176.353 32.9333 177.673 32.5067 179.086 32.24C180.526 31.9467 181.913 31.8133 183.246 31.84V29.36C183.246 28.4267 183.166 27.5467 183.006 26.72C182.846 25.8933 182.5 25.2133 181.966 24.68C181.433 24.1467 180.58 23.8667 179.406 23.84C178.633 23.8133 177.833 23.96 177.006 24.28C176.206 24.6 175.62 25.1467 175.246 25.92C175.46 26.1333 175.593 26.3867 175.646 26.68C175.726 26.9467 175.766 27.2 175.766 27.44C175.766 27.76 175.633 28.1333 175.366 28.56C175.1 28.96 174.633 29.1467 173.966 29.12C173.406 29.12 172.98 28.9333 172.686 28.56C172.393 28.16 172.246 27.6933 172.246 27.16C172.246 26.2533 172.58 25.44 173.246 24.72C173.94 24 174.886 23.4267 176.086 23C177.286 22.5733 178.646 22.36 180.166 22.36C182.406 22.36 184.06 22.96 185.126 24.16C186.193 25.3333 186.713 27.2 186.686 29.76C186.686 30.7467 186.686 31.7467 186.686 32.76C186.686 33.7467 186.673 34.7467 186.646 35.76C186.646 36.7467 186.646 37.7467 186.646 38.76C186.646 39.1867 186.633 39.6133 186.606 40.04C186.58 40.4667 186.54 40.9467 186.486 41.48C186.966 41.4533 187.433 41.4267 187.886 41.4C188.366 41.3733 188.846 41.3467 189.326 41.32V43H183.606ZM183.246 33.2C182.34 33.2267 181.38 33.3467 180.366 33.56C179.38 33.7467 178.46 34.04 177.606 34.44C176.78 34.84 176.1 35.3733 175.566 36.04C175.06 36.68 174.82 37.4667 174.846 38.4C174.9 39.3867 175.22 40.1333 175.806 40.64C176.42 41.12 177.14 41.36 177.966 41.36C179.06 41.36 180.006 41.16 180.806 40.76C181.633 40.3333 182.446 39.7467 183.246 39C183.22 38.7067 183.206 38.3867 183.206 38.04C183.206 37.6933 183.206 37.3333 183.206 36.96C183.206 36.8267 183.206 36.4 183.206 35.68C183.233 34.96 183.246 34.1333 183.246 33.2Z" fill="#99A6BF"/>
</svg>
