<svg width="234" height="56" viewBox="0 0 234 56" fill="none" xmlns="http://www.w3.org/2000/svg">
<mask id="mask0_2014_3773" style="mask-type:luminance" maskUnits="userSpaceOnUse" x="0" y="10" width="26" height="23">
<path d="M0.81665 32.21L25.9185 16.3448V10L0.81665 25.867V32.21Z" fill="white"/>
</mask>
<g mask="url(#mask0_2014_3773)">
<path d="M0.81665 32.21L25.9185 16.3448V10L0.81665 25.867V32.21Z" fill="#696CFF"/>
</g>
<mask id="mask1_2014_3773" style="mask-type:luminance" maskUnits="userSpaceOnUse" x="0" y="25" width="26" height="21">
<path d="M0.81665 45.999L25.9185 30.132V25.0054L0.81665 40.8706V45.999Z" fill="white"/>
</mask>
<g mask="url(#mask1_2014_3773)">
<path d="M0.81665 45.999L25.9185 30.132V25.0054L0.81665 40.8706V45.999Z" fill="#696CFF"/>
</g>
<mask id="mask2_2014_3773" style="mask-type:luminance" maskUnits="userSpaceOnUse" x="11" y="11" width="26" height="22">
<path d="M11.7129 32.21L36.8186 16.3448V11.0133L11.7129 26.8806V32.21Z" fill="white"/>
</mask>
<g mask="url(#mask2_2014_3773)">
<path d="M11.7129 32.21L36.8186 16.3448V11.0133L11.7129 26.8806V32.21Z" fill="#696CFF"/>
</g>
<mask id="mask3_2014_3773" style="mask-type:luminance" maskUnits="userSpaceOnUse" x="11" y="24" width="26" height="22">
<path d="M36.8186 24.8034L11.7129 40.6686V46L36.8186 30.1327V24.8034Z" fill="white"/>
</mask>
<g mask="url(#mask3_2014_3773)">
<path d="M36.8186 24.8034L11.7129 40.6686V46L36.8186 30.1327V24.8034Z" fill="#696CFF"/>
</g>
<path d="M67.9785 23.44C67.9519 21.8667 67.7919 20.56 67.4985 19.52C67.2052 18.48 66.6852 17.7067 65.9385 17.2C65.2185 16.6667 64.1652 16.4133 62.7785 16.44H59.3785L59.3385 38.24C59.3385 38.96 59.3252 39.5867 59.2985 40.12C59.2985 40.6267 59.2719 41.0533 59.2185 41.4C59.7785 41.3733 60.3252 41.3467 60.8585 41.32C61.4185 41.2933 61.9785 41.2667 62.5385 41.24V43H53.1385V41.68C54.1519 41.6267 54.8319 41.3867 55.1785 40.96C55.5519 40.5333 55.7519 39.96 55.7785 39.24C55.8319 38.4933 55.8585 37.6667 55.8585 36.76L55.8985 16.48L51.7785 16.52C50.0985 16.52 48.9119 17.08 48.2185 18.2C47.5252 19.32 47.1785 21.0667 47.1785 23.44H45.6985L45.9385 15H69.2585L69.4985 23.44H67.9785ZM79.8914 43.64C78.0514 43.64 76.3847 43.2133 74.8914 42.36C73.4247 41.48 72.2647 40.2533 71.4114 38.68C70.558 37.08 70.1314 35.2 70.1314 33.04C70.1314 31.1733 70.5447 29.4267 71.3714 27.8C72.2247 26.1733 73.4114 24.8667 74.9314 23.88C76.4514 22.8667 78.2114 22.36 80.2114 22.36C81.3314 22.36 82.3714 22.5467 83.3314 22.92C84.318 23.2667 85.1847 23.8133 85.9314 24.56C86.678 25.28 87.2647 26.2 87.6914 27.32C88.118 28.4133 88.3314 29.7067 88.3314 31.2L74.2514 31.44C74.2514 33.4667 74.4647 35.2533 74.8914 36.8C75.3447 38.32 76.0647 39.5067 77.0514 40.36C78.038 41.1867 79.3047 41.6 80.8514 41.6C81.678 41.6 82.518 41.4533 83.3714 41.16C84.2514 40.8667 85.0647 40.4667 85.8114 39.96C86.558 39.4533 87.158 38.8933 87.6114 38.28L88.5714 39.08C87.8514 40.2 86.9847 41.0933 85.9714 41.76C84.958 42.4267 83.918 42.9067 82.8514 43.2C81.7847 43.4933 80.798 43.64 79.8914 43.64ZM74.3714 29.76H84.5714C84.5714 28.8 84.4247 27.88 84.1314 27C83.8647 26.0933 83.4114 25.36 82.7714 24.8C82.1314 24.2133 81.2914 23.92 80.2514 23.92C78.7047 23.92 77.4114 24.3867 76.3714 25.32C75.358 26.2267 74.6914 27.7067 74.3714 29.76ZM91.891 41.8C92.7177 41.8 93.291 41.6 93.611 41.2C93.931 40.7733 94.1177 40.2 94.171 39.48C94.2244 38.7333 94.251 37.88 94.251 36.92V27.8C94.251 27.3733 94.251 26.9467 94.251 26.52C94.2777 26.0933 94.331 25.6533 94.411 25.2C93.931 25.2267 93.451 25.2533 92.971 25.28C92.5177 25.28 92.051 25.2933 91.571 25.32V23.68H92.811C93.9577 23.68 94.7444 23.5733 95.171 23.36C95.6244 23.12 95.9977 22.8667 96.291 22.6H97.451C97.5044 23.0267 97.5444 23.56 97.571 24.2C97.5977 24.8133 97.6244 25.6 97.651 26.56C98.051 25.8933 98.5977 25.24 99.291 24.6C99.9844 23.96 100.758 23.4267 101.611 23C102.491 22.5733 103.411 22.36 104.371 22.36C105.118 22.36 105.771 22.56 106.331 22.96C106.891 23.36 107.171 24 107.171 24.88C107.171 25.0933 107.104 25.36 106.971 25.68C106.838 25.9733 106.624 26.24 106.331 26.48C106.038 26.6933 105.651 26.8 105.171 26.8C104.584 26.7733 104.118 26.5467 103.771 26.12C103.424 25.6667 103.291 25.1467 103.371 24.56C102.704 24.5333 102.011 24.7067 101.291 25.08C100.598 25.4533 99.9444 25.9733 99.331 26.64C98.7177 27.28 98.171 28.04 97.691 28.92L97.731 38.76C97.731 39.2933 97.7177 39.7733 97.691 40.2C97.691 40.6 97.651 41.0267 97.571 41.48C97.9977 41.4533 98.411 41.44 98.811 41.44C99.2377 41.4133 99.6644 41.3867 100.091 41.36V43H91.891V41.8ZM109.196 41.8C110.022 41.8 110.596 41.6 110.916 41.2C111.236 40.7733 111.422 40.2 111.476 39.48C111.529 38.7333 111.556 37.88 111.556 36.92V27.8C111.556 27.3733 111.556 26.9467 111.556 26.52C111.582 26.0933 111.636 25.6533 111.716 25.2C111.236 25.2267 110.756 25.2533 110.276 25.28C109.822 25.28 109.356 25.2933 108.876 25.32V23.68H110.116C111.262 23.68 112.049 23.5733 112.476 23.36C112.929 23.12 113.302 22.8667 113.596 22.6H114.756C114.809 23.0267 114.849 23.56 114.876 24.2C114.902 24.8133 114.929 25.6 114.956 26.56C115.356 25.8933 115.902 25.24 116.596 24.6C117.289 23.96 118.062 23.4267 118.916 23C119.796 22.5733 120.716 22.36 121.676 22.36C122.422 22.36 123.076 22.56 123.636 22.96C124.196 23.36 124.476 24 124.476 24.88C124.476 25.0933 124.409 25.36 124.276 25.68C124.142 25.9733 123.929 26.24 123.636 26.48C123.342 26.6933 122.956 26.8 122.476 26.8C121.889 26.7733 121.422 26.5467 121.076 26.12C120.729 25.6667 120.596 25.1467 120.676 24.56C120.009 24.5333 119.316 24.7067 118.596 25.08C117.902 25.4533 117.249 25.9733 116.636 26.64C116.022 27.28 115.476 28.04 114.996 28.92L115.036 38.76C115.036 39.2933 115.022 39.7733 114.996 40.2C114.996 40.6 114.956 41.0267 114.876 41.48C115.302 41.4533 115.716 41.44 116.116 41.44C116.542 41.4133 116.969 41.3867 117.396 41.36V43H109.196V41.8ZM138.387 43C138.307 42.5467 138.254 42.1467 138.227 41.8C138.2 41.4533 138.16 41.0933 138.107 40.72C137.2 41.6267 136.214 42.3467 135.147 42.88C134.107 43.3867 133 43.64 131.827 43.64C129.8 43.64 128.294 43.1867 127.307 42.28C126.32 41.3467 125.827 40.2133 125.827 38.88C125.827 37.6533 126.2 36.6 126.947 35.72C127.72 34.8133 128.707 34.08 129.907 33.52C131.134 32.9333 132.454 32.5067 133.867 32.24C135.307 31.9467 136.694 31.8133 138.027 31.84V29.36C138.027 28.4267 137.947 27.5467 137.787 26.72C137.627 25.8933 137.28 25.2133 136.747 24.68C136.214 24.1467 135.36 23.8667 134.187 23.84C133.414 23.8133 132.614 23.96 131.787 24.28C130.987 24.6 130.4 25.1467 130.027 25.92C130.24 26.1333 130.374 26.3867 130.427 26.68C130.507 26.9467 130.547 27.2 130.547 27.44C130.547 27.76 130.414 28.1333 130.147 28.56C129.88 28.96 129.414 29.1467 128.747 29.12C128.187 29.12 127.76 28.9333 127.467 28.56C127.174 28.16 127.027 27.6933 127.027 27.16C127.027 26.2533 127.36 25.44 128.027 24.72C128.72 24 129.667 23.4267 130.867 23C132.067 22.5733 133.427 22.36 134.947 22.36C137.187 22.36 138.84 22.96 139.907 24.16C140.974 25.3333 141.494 27.2 141.467 29.76C141.467 30.7467 141.467 31.7467 141.467 32.76C141.467 33.7467 141.454 34.7467 141.427 35.76C141.427 36.7467 141.427 37.7467 141.427 38.76C141.427 39.1867 141.414 39.6133 141.387 40.04C141.36 40.4667 141.32 40.9467 141.267 41.48C141.747 41.4533 142.214 41.4267 142.667 41.4C143.147 41.3733 143.627 41.3467 144.107 41.32V43H138.387ZM138.027 33.2C137.12 33.2267 136.16 33.3467 135.147 33.56C134.16 33.7467 133.24 34.04 132.387 34.44C131.56 34.84 130.88 35.3733 130.347 36.04C129.84 36.68 129.6 37.4667 129.627 38.4C129.68 39.3867 130 40.1333 130.587 40.64C131.2 41.12 131.92 41.36 132.747 41.36C133.84 41.36 134.787 41.16 135.587 40.76C136.414 40.3333 137.227 39.7467 138.027 39C138 38.7067 137.987 38.3867 137.987 38.04C137.987 37.6933 137.987 37.3333 137.987 36.96C137.987 36.8267 137.987 36.4 137.987 35.68C138.014 34.96 138.027 34.1333 138.027 33.2ZM146.852 43V41.8C147.679 41.8 148.252 41.6 148.572 41.2C148.892 40.7733 149.079 40.2 149.132 39.48C149.185 38.7333 149.212 37.88 149.212 36.92L149.252 27.8C149.252 27.3733 149.252 26.9467 149.252 26.52C149.279 26.0933 149.332 25.6533 149.412 25.2C148.932 25.2267 148.452 25.2533 147.972 25.28C147.519 25.3067 147.052 25.3333 146.572 25.36V23.68C147.745 23.68 148.625 23.6267 149.212 23.52C149.825 23.4133 150.279 23.28 150.572 23.12C150.865 22.96 151.105 22.7867 151.292 22.6H152.452C152.479 22.7867 152.492 23 152.492 23.24C152.519 23.48 152.545 23.7467 152.572 24.04C152.599 24.3333 152.612 24.6667 152.612 25.04C153.199 24.5333 153.839 24.08 154.532 23.68C155.252 23.28 155.999 22.96 156.772 22.72C157.572 22.48 158.359 22.36 159.132 22.36C161.452 22.36 163.145 23.0933 164.212 24.56C165.279 26 165.812 28.2533 165.812 31.32V38.76C165.812 39.2933 165.799 39.7733 165.772 40.2C165.772 40.6 165.732 41.0267 165.652 41.48C166.079 41.4533 166.492 41.44 166.892 41.44C167.319 41.4133 167.745 41.3867 168.172 41.36V43H160.012V41.8C160.839 41.8 161.412 41.6 161.732 41.2C162.052 40.7733 162.239 40.2 162.292 39.48C162.345 38.7333 162.372 37.88 162.372 36.92V31.32C162.345 29.0267 161.959 27.2933 161.212 26.12C160.492 24.9467 159.345 24.3733 157.772 24.4C156.812 24.4267 155.865 24.68 154.932 25.16C154.025 25.64 153.265 26.2533 152.652 27C152.679 27.2133 152.692 27.4533 152.692 27.72C152.692 27.9867 152.692 28.2667 152.692 28.56L152.652 38.76C152.652 39.2933 152.639 39.7733 152.612 40.2C152.612 40.6 152.572 41.0267 152.492 41.48C152.919 41.4533 153.332 41.44 153.732 41.44C154.159 41.4133 154.585 41.3867 155.012 41.36V43H146.852ZM181.069 43.64C179.202 43.64 177.509 43.2133 175.989 42.36C174.469 41.48 173.256 40.28 172.349 38.76C171.469 37.2133 171.029 35.4533 171.029 33.48C171.029 31.3733 171.469 29.48 172.349 27.8C173.229 26.12 174.429 24.8 175.949 23.84C177.469 22.8533 179.176 22.36 181.069 22.36C182.936 22.36 184.629 22.8133 186.149 23.72C187.669 24.6 188.882 25.8 189.789 27.32C190.696 28.84 191.149 30.5733 191.149 32.52C191.149 34.5733 190.696 36.4533 189.789 38.16C188.909 39.84 187.709 41.1733 186.189 42.16C184.669 43.1467 182.962 43.64 181.069 43.64ZM181.389 42.04C182.802 42.04 183.922 41.64 184.749 40.84C185.576 40.04 186.162 39 186.509 37.72C186.882 36.44 187.069 35.0933 187.069 33.68C187.069 32.48 186.949 31.3067 186.709 30.16C186.496 28.9867 186.149 27.9333 185.669 27C185.189 26.04 184.562 25.28 183.789 24.72C183.042 24.16 182.136 23.88 181.069 23.88C179.682 23.88 178.549 24.28 177.669 25.08C176.789 25.88 176.136 26.92 175.709 28.2C175.309 29.48 175.109 30.8533 175.109 32.32C175.109 33.9733 175.336 35.5467 175.789 37.04C176.242 38.5067 176.936 39.7067 177.869 40.64C178.802 41.5733 179.976 42.04 181.389 42.04ZM201.952 43.12L196.232 30.08C195.805 29.0667 195.472 28.2 195.232 27.48C194.992 26.76 194.819 26.16 194.712 25.68C194.632 25.2 194.579 24.8133 194.552 24.52L192.832 24.64V23H200.192V24.2C199.392 24.2 198.872 24.4133 198.632 24.84C198.419 25.24 198.392 25.7867 198.552 26.48C198.712 27.1467 198.952 27.8667 199.272 28.64L202.352 35.68C202.565 36.1333 202.765 36.6133 202.952 37.12C203.165 37.6 203.365 38.1067 203.552 38.64H203.592C203.725 38.24 203.872 37.8133 204.032 37.36C204.219 36.9067 204.379 36.4667 204.512 36.04L207.712 27.28C207.925 26.64 208.152 26.08 208.392 25.6C208.632 25.12 208.805 24.76 208.912 24.52L206.352 24.64V23H212.672V24.2C212.085 24.2 211.592 24.4 211.192 24.8C210.792 25.2 210.405 25.8 210.032 26.6C209.685 27.4 209.272 28.4 208.792 29.6L203.552 43.12H201.952ZM226.317 43C226.237 42.5467 226.183 42.1467 226.157 41.8C226.13 41.4533 226.09 41.0933 226.037 40.72C225.13 41.6267 224.143 42.3467 223.077 42.88C222.037 43.3867 220.93 43.64 219.757 43.64C217.73 43.64 216.223 43.1867 215.237 42.28C214.25 41.3467 213.757 40.2133 213.757 38.88C213.757 37.6533 214.13 36.6 214.877 35.72C215.65 34.8133 216.637 34.08 217.837 33.52C219.063 32.9333 220.383 32.5067 221.797 32.24C223.237 31.9467 224.623 31.8133 225.957 31.84V29.36C225.957 28.4267 225.877 27.5467 225.717 26.72C225.557 25.8933 225.21 25.2133 224.677 24.68C224.143 24.1467 223.29 23.8667 222.117 23.84C221.343 23.8133 220.543 23.96 219.717 24.28C218.917 24.6 218.33 25.1467 217.957 25.92C218.17 26.1333 218.303 26.3867 218.357 26.68C218.437 26.9467 218.477 27.2 218.477 27.44C218.477 27.76 218.343 28.1333 218.077 28.56C217.81 28.96 217.343 29.1467 216.677 29.12C216.117 29.12 215.69 28.9333 215.397 28.56C215.103 28.16 214.957 27.6933 214.957 27.16C214.957 26.2533 215.29 25.44 215.957 24.72C216.65 24 217.597 23.4267 218.797 23C219.997 22.5733 221.357 22.36 222.877 22.36C225.117 22.36 226.77 22.96 227.837 24.16C228.903 25.3333 229.423 27.2 229.397 29.76C229.397 30.7467 229.397 31.7467 229.397 32.76C229.397 33.7467 229.383 34.7467 229.357 35.76C229.357 36.7467 229.357 37.7467 229.357 38.76C229.357 39.1867 229.343 39.6133 229.317 40.04C229.29 40.4667 229.25 40.9467 229.197 41.48C229.677 41.4533 230.143 41.4267 230.597 41.4C231.077 41.3733 231.557 41.3467 232.037 41.32V43H226.317ZM225.957 33.2C225.05 33.2267 224.09 33.3467 223.077 33.56C222.09 33.7467 221.17 34.04 220.317 34.44C219.49 34.84 218.81 35.3733 218.277 36.04C217.77 36.68 217.53 37.4667 217.557 38.4C217.61 39.3867 217.93 40.1333 218.517 40.64C219.13 41.12 219.85 41.36 220.677 41.36C221.77 41.36 222.717 41.16 223.517 40.76C224.343 40.3333 225.157 39.7467 225.957 39C225.93 38.7067 225.917 38.3867 225.917 38.04C225.917 37.6933 225.917 37.3333 225.917 36.96C225.917 36.8267 225.917 36.4 225.917 35.68C225.943 34.96 225.957 34.1333 225.957 33.2Z" fill="#2D3C59"/>
</svg>
