<svg width="161" height="56" viewBox="0 0 161 56" fill="none" xmlns="http://www.w3.org/2000/svg">
<mask id="mask0_2014_3752" style="mask-type:luminance" maskUnits="userSpaceOnUse" x="0" y="10" width="37" height="36">
<path d="M17.1621 41.4301V42.2511H17.124V42.2814H16.306H5.7792H4.77746L4.97709 41.2969C5.01289 41.1197 5.05107 40.9478 5.09044 40.7859C5.12662 40.6299 5.16838 40.4691 5.21252 40.312L5.23757 40.2262L5.26183 40.1416C5.29802 40.0172 5.33262 39.9023 5.37 39.7842L5.3708 39.7814L5.37437 39.7698C5.40618 39.6729 5.4376 39.5764 5.47339 39.4798C5.50838 39.3729 5.54895 39.2632 5.58872 39.1567C5.63843 39.0227 5.69211 38.8823 5.74659 38.7446C5.79392 38.627 5.84363 38.5121 5.8993 38.3904C5.91919 38.3405 5.94066 38.2915 5.96571 38.2428C6.01621 38.1275 6.06513 38.0226 6.11444 37.9233C6.13552 37.8786 6.1558 37.8367 6.17688 37.7948C6.22778 37.6899 6.28384 37.5814 6.33952 37.4797C6.359 37.441 6.38367 37.3927 6.41628 37.3393C6.41707 37.3369 6.41786 37.3349 6.41945 37.3325L6.42542 37.3209L6.43337 37.3066C6.50615 37.1701 6.57415 37.0501 6.64056 36.9388C6.70498 36.8291 6.77298 36.7138 6.84695 36.5981L6.8736 36.5566C6.89428 36.5231 6.91495 36.49 6.93682 36.4565L6.96545 36.4114C7.03823 36.2949 7.11896 36.1733 7.20168 36.0564C7.29195 35.9259 7.38778 35.7875 7.49595 35.6455C7.56634 35.5462 7.64348 35.4449 7.7441 35.3192L7.75165 35.31L7.7596 35.3013L7.77948 35.2769C7.80931 35.237 7.84152 35.1971 7.87254 35.1596C7.95407 35.0595 8.03757 34.9574 8.12824 34.8533C8.14892 34.8273 8.16722 34.8074 8.17994 34.7942C8.26982 34.6877 8.36048 34.586 8.45632 34.4843C8.48336 34.4544 8.5124 34.4225 8.54183 34.3921C8.63687 34.2876 8.74026 34.1795 8.87507 34.0443C9.89828 33.0179 11.0468 32.167 12.303 31.5028H6.16494C4.55835 33.1352 3.29296 35.0272 2.40217 37.1299C1.46446 39.3486 0.986066 41.7065 0.981294 44.1383L0.978119 45.7275V46H20.7873V30.6819V29.8613H20.7901V29.4014L20.7873 26.907V14.8197V13.9987H20.8338L21.6523 13.9907H32.179H33.1799L32.9807 14.9748C32.4244 17.7225 31.0763 20.2305 29.0827 22.2278C28.6612 22.6491 28.2186 23.0416 27.7553 23.4034H33.0046C34.0493 22.1069 34.9062 20.6745 35.5552 19.1399C36.4914 16.9219 36.969 14.5644 36.9741 12.1338L36.9781 10.2693H17.1621V41.4301Z" fill="white"/>
</mask>
<g mask="url(#mask0_2014_3752)">
<path d="M17.1621 41.4301V42.2511H17.124V42.2814H16.306H5.7792H4.77746L4.97709 41.2969C5.01289 41.1197 5.05107 40.9478 5.09044 40.7859C5.12662 40.6299 5.16838 40.4691 5.21252 40.312L5.23757 40.2262L5.26183 40.1416C5.29802 40.0172 5.33262 39.9023 5.37 39.7842L5.3708 39.7814L5.37437 39.7698C5.40618 39.6729 5.4376 39.5764 5.47339 39.4798C5.50838 39.3729 5.54895 39.2632 5.58872 39.1567C5.63843 39.0227 5.69211 38.8823 5.74659 38.7446C5.79392 38.627 5.84363 38.5121 5.8993 38.3904C5.91919 38.3405 5.94066 38.2915 5.96571 38.2428C6.01621 38.1275 6.06513 38.0226 6.11444 37.9233C6.13552 37.8786 6.1558 37.8367 6.17688 37.7948C6.22778 37.6899 6.28384 37.5814 6.33952 37.4797C6.359 37.441 6.38367 37.3927 6.41628 37.3393C6.41707 37.3369 6.41786 37.3349 6.41945 37.3325L6.42542 37.3209L6.43337 37.3066C6.50615 37.1701 6.57415 37.0501 6.64056 36.9388C6.70498 36.8291 6.77298 36.7138 6.84695 36.5981L6.8736 36.5566C6.89428 36.5231 6.91495 36.49 6.93682 36.4565L6.96545 36.4114C7.03823 36.2949 7.11896 36.1733 7.20168 36.0564C7.29195 35.9259 7.38778 35.7875 7.49595 35.6455C7.56634 35.5462 7.64348 35.4449 7.7441 35.3192L7.75165 35.31L7.7596 35.3013L7.77948 35.2769C7.80931 35.237 7.84152 35.1971 7.87254 35.1596C7.95407 35.0595 8.03757 34.9574 8.12824 34.8533C8.14892 34.8273 8.16722 34.8074 8.17994 34.7942C8.26982 34.6877 8.36048 34.586 8.45632 34.4843C8.48336 34.4544 8.5124 34.4225 8.54183 34.3921C8.63687 34.2876 8.74026 34.1795 8.87507 34.0443C9.89828 33.0179 11.0468 32.167 12.303 31.5028H6.16494C4.55835 33.1352 3.29296 35.0272 2.40217 37.1299C1.46446 39.3486 0.986066 41.7065 0.981294 44.1383L0.978119 45.7275V46H20.7873V30.6819V29.8613H20.7901V29.4014L20.7873 26.907V14.8197V13.9987H20.8338L21.6523 13.9907H32.179H33.1799L32.9807 14.9748C32.4244 17.7225 31.0763 20.2305 29.0827 22.2278C28.6612 22.6491 28.2186 23.0416 27.7553 23.4034H33.0046C34.0493 22.1069 34.9062 20.6745 35.5552 19.1399C36.4914 16.9219 36.969 14.5644 36.9741 12.1338L36.9781 10.2693H17.1621V41.4301Z" fill="#99A6BF"/>
</g>
<mask id="mask1_2014_3752" style="mask-type:luminance" maskUnits="userSpaceOnUse" x="1" y="10" width="13" height="19">
<path d="M4.72129 26.1359V13.7992L5.69957 13.9943C8.45623 14.5444 10.9707 15.8955 12.9706 17.902C13.1074 18.0392 13.2418 18.1796 13.3738 18.3232V13.3804C12.287 12.5957 11.1147 11.9347 9.88307 11.4129C7.67281 10.4751 5.32098 10 2.89359 10H1.01181V28.7627H13.3738V26.1359H5.53931H4.72129Z" fill="white"/>
</mask>
<g mask="url(#mask1_2014_3752)">
<path d="M4.72129 26.1359V13.7992L5.69957 13.9943C8.45623 14.5444 10.9707 15.8955 12.9706 17.902C13.1074 18.0392 13.2418 18.1796 13.3738 18.3232V13.3804C12.287 12.5957 11.1147 11.9347 9.88307 11.4129C7.67281 10.4751 5.32098 10 2.89359 10H1.01181V28.7627H13.3738V26.1359H5.53931H4.72129Z" fill="#99A6BF"/>
</g>
<mask id="mask2_2014_3752" style="mask-type:luminance" maskUnits="userSpaceOnUse" x="24" y="26" width="13" height="21">
<path d="M32.9817 28.7677V42.1978L32.0046 42.0039C29.2531 41.4582 26.7386 40.1079 24.7328 38.0994C24.691 38.0567 24.6489 38.0144 24.6075 37.9717V42.8185C25.6088 43.513 26.6877 44.1066 27.8195 44.5848C30.0345 45.5243 32.386 46.001 34.8094 46.001H36.6888V26.1409H24.6075V28.7677H32.1637H32.9817Z" fill="white"/>
</mask>
<g mask="url(#mask2_2014_3752)">
<path d="M32.9817 28.7677V42.1978L32.0046 42.0039C29.2531 41.4582 26.7386 40.1079 24.7328 38.0994C24.691 38.0567 24.6489 38.0144 24.6075 37.9717V42.8185C25.6088 43.513 26.6877 44.1066 27.8195 44.5848C30.0345 45.5243 32.386 46.001 34.8094 46.001H36.6888V26.1409H24.6075V28.7677H32.1637H32.9817Z" fill="#99A6BF"/>
</g>
<path d="M47.1781 43V41.68C48.1915 41.6533 48.8848 41.4267 49.2581 41C49.6315 40.5467 49.8315 39.9467 49.8581 39.2C49.9115 38.4267 49.9381 37.5467 49.9381 36.56V19.76C49.9381 19.04 49.9515 18.4267 49.9781 17.92C50.0048 17.3867 50.0315 16.9467 50.0581 16.6C49.5781 16.6267 49.0981 16.6533 48.6181 16.68C48.1381 16.7067 47.6581 16.7333 47.1781 16.76V15C48.6448 14.9733 50.1115 14.96 51.5781 14.96C53.0715 14.9333 54.6181 14.92 56.2181 14.92C59.3115 14.92 61.7248 15.4667 63.4581 16.56C65.2181 17.6533 66.0715 19.3867 66.0181 21.76C66.0181 22.6133 65.7648 23.4667 65.2581 24.32C64.7781 25.1733 64.0448 25.9333 63.0581 26.6C62.0981 27.24 60.8848 27.6933 59.4181 27.96V28.04C62.3515 28.04 64.5648 28.72 66.0581 30.08C67.5515 31.4133 68.2981 33.1067 68.2981 35.16C68.2981 36.7867 67.8848 38.1867 67.0581 39.36C66.2315 40.5333 65.1115 41.44 63.6981 42.08C62.2848 42.6933 60.6715 43 58.8581 43H47.1781ZM53.2981 41.4C53.7248 41.4267 54.2315 41.4533 54.8181 41.48C55.4315 41.48 55.9915 41.48 56.4981 41.48C57.0315 41.48 57.3781 41.48 57.5381 41.48C59.5915 41.48 61.2448 40.9733 62.4981 39.96C63.7781 38.92 64.4181 37.4 64.4181 35.4C64.4181 33.7733 64.0981 32.5067 63.4581 31.6C62.8181 30.6933 61.9781 30.0533 60.9381 29.68C59.8981 29.3067 58.7648 29.12 57.5381 29.12C56.7381 29.12 56.0048 29.1333 55.3381 29.16C54.6981 29.16 54.0581 29.1867 53.4181 29.24V38.28C53.4181 39 53.4048 39.6133 53.3781 40.12C53.3781 40.6267 53.3515 41.0533 53.2981 41.4ZM53.4181 27.68L56.3381 27.6C57.8581 27.5733 59.0581 27.2667 59.9381 26.68C60.8181 26.0667 61.4448 25.3067 61.8181 24.4C62.2181 23.4933 62.4048 22.5467 62.3781 21.56C62.3515 20.12 62.0181 19.0267 61.3781 18.28C60.7648 17.5333 60.0048 17.0267 59.0981 16.76C58.1915 16.4933 57.2981 16.36 56.4181 16.36C55.5381 16.36 54.8848 16.48 54.4581 16.72C54.0315 16.96 53.7515 17.36 53.6181 17.92C53.4848 18.48 53.4181 19.2533 53.4181 20.24V27.68ZM71.3084 41.8C72.1351 41.8 72.7084 41.6 73.0284 41.2C73.3484 40.7733 73.5351 40.2 73.5884 39.48C73.6418 38.7333 73.6684 37.88 73.6684 36.92V27.8C73.6684 27.3733 73.6684 26.9467 73.6684 26.52C73.6951 26.0933 73.7484 25.6533 73.8284 25.2C73.3484 25.2267 72.8684 25.2533 72.3884 25.28C71.9351 25.28 71.4684 25.2933 70.9884 25.32V23.68H72.2284C73.3751 23.68 74.1618 23.5733 74.5884 23.36C75.0418 23.12 75.4151 22.8667 75.7084 22.6H76.8684C76.9218 23.0267 76.9618 23.56 76.9884 24.2C77.0151 24.8133 77.0418 25.6 77.0684 26.56C77.4684 25.8933 78.0151 25.24 78.7084 24.6C79.4018 23.96 80.1751 23.4267 81.0284 23C81.9084 22.5733 82.8284 22.36 83.7884 22.36C84.5351 22.36 85.1884 22.56 85.7484 22.96C86.3084 23.36 86.5884 24 86.5884 24.88C86.5884 25.0933 86.5218 25.36 86.3884 25.68C86.2551 25.9733 86.0418 26.24 85.7484 26.48C85.4551 26.6933 85.0684 26.8 84.5884 26.8C84.0018 26.7733 83.5351 26.5467 83.1884 26.12C82.8418 25.6667 82.7084 25.1467 82.7884 24.56C82.1218 24.5333 81.4284 24.7067 80.7084 25.08C80.0151 25.4533 79.3618 25.9733 78.7484 26.64C78.1351 27.28 77.5884 28.04 77.1084 28.92L77.1484 38.76C77.1484 39.2933 77.1351 39.7733 77.1084 40.2C77.1084 40.6 77.0684 41.0267 76.9884 41.48C77.4151 41.4533 77.8284 41.44 78.2284 41.44C78.6551 41.4133 79.0818 41.3867 79.5084 41.36V43H71.3084V41.8ZM88.6131 41.8C89.4398 41.8 90.0131 41.6 90.3331 41.2C90.6531 40.7733 90.8398 40.2 90.8931 39.48C90.9465 38.7333 90.9731 37.88 90.9731 36.92V27.8C90.9731 27.3733 90.9865 26.9733 91.0131 26.6C91.0398 26.2 91.0798 25.7333 91.1331 25.2C90.6531 25.2267 90.1731 25.2533 89.6931 25.28C89.2398 25.3067 88.7731 25.3333 88.2931 25.36V23.68C89.4665 23.68 90.3731 23.6267 91.0131 23.52C91.6531 23.4133 92.1331 23.28 92.4531 23.12C92.7998 22.96 93.0665 22.7867 93.2531 22.6H94.4131V38.76C94.4131 39.2933 94.3998 39.7733 94.3731 40.2C94.3731 40.6 94.3331 41.0267 94.2531 41.48C94.6798 41.4533 95.0931 41.44 95.4931 41.44C95.9198 41.4133 96.3465 41.3867 96.7731 41.36V43H88.6131V41.8ZM92.4931 18.64C91.9331 18.64 91.4398 18.4133 91.0131 17.96C90.5865 17.5067 90.3731 16.9467 90.3731 16.28C90.3731 15.6133 90.5865 15.0533 91.0131 14.6C91.4665 14.12 91.9731 13.88 92.5331 13.88C93.1465 13.88 93.6531 14.12 94.0531 14.6C94.4798 15.0533 94.6931 15.6133 94.6931 16.28C94.6931 16.9467 94.4665 17.5067 94.0131 17.96C93.5865 18.4133 93.0798 18.64 92.4931 18.64ZM109.503 53.84C107.103 53.84 105.17 53.5733 103.703 53.04C102.236 52.5067 101.17 51.8267 100.503 51C99.8365 50.1733 99.5031 49.32 99.5031 48.44C99.5031 47.6133 99.6898 46.88 100.063 46.24C100.463 45.6267 100.943 45.0933 101.503 44.64C102.09 44.1867 102.65 43.8533 103.183 43.64C102.33 43.3467 101.65 42.96 101.143 42.48C100.663 41.9733 100.423 41.3067 100.423 40.48C100.423 39.5467 100.796 38.68 101.543 37.88C102.29 37.0533 103.25 36.5467 104.423 36.36C103.196 35.7733 102.21 34.96 101.463 33.92C100.743 32.88 100.383 31.6667 100.383 30.28C100.383 28.68 100.796 27.2933 101.623 26.12C102.45 24.92 103.503 24 104.783 23.36C106.09 22.6933 107.436 22.36 108.823 22.36C109.703 22.36 110.583 22.4933 111.463 22.76C112.343 23 113.156 23.36 113.903 23.84C114.17 23.0933 114.543 22.4267 115.023 21.84C115.53 21.2533 116.103 20.8 116.743 20.48C117.383 20.1333 118.05 19.96 118.743 19.96C119.436 19.96 119.956 20.1467 120.303 20.52C120.676 20.8667 120.863 21.3467 120.863 21.96C120.863 22.1467 120.81 22.3733 120.703 22.64C120.596 22.9067 120.41 23.1333 120.143 23.32C119.903 23.5067 119.57 23.6 119.143 23.6C118.69 23.6 118.316 23.4667 118.023 23.2C117.73 22.9333 117.543 22.6 117.463 22.2C116.796 22.3067 116.276 22.6267 115.903 23.16C115.53 23.6667 115.276 24.2267 115.143 24.84C115.783 25.4267 116.29 26.1333 116.663 26.96C117.063 27.7867 117.263 28.6667 117.263 29.6C117.263 31.0933 116.863 32.4267 116.063 33.6C115.29 34.7733 114.263 35.6933 112.983 36.36C111.703 37 110.316 37.32 108.823 37.32C108.316 37.32 107.876 37.2933 107.503 37.24C107.13 37.16 106.676 37.12 106.143 37.12C105.156 37.12 104.356 37.36 103.743 37.84C103.13 38.32 102.916 38.8933 103.103 39.56C103.316 40.2 103.97 40.6133 105.063 40.8C106.156 40.96 107.623 41.08 109.463 41.16C111.516 41.24 113.276 41.48 114.743 41.88C116.21 42.28 117.33 42.8933 118.103 43.72C118.903 44.5733 119.303 45.72 119.303 47.16C119.303 48.2267 119.01 49.1733 118.423 50C117.863 50.8533 117.103 51.56 116.143 52.12C115.21 52.68 114.156 53.1067 112.983 53.4C111.836 53.6933 110.676 53.84 109.503 53.84ZM109.463 52.28C111.756 52.28 113.543 51.8533 114.823 51C116.103 50.1467 116.743 49.1467 116.743 48C116.743 47.0133 116.41 46.2533 115.743 45.72C115.076 45.2133 114.17 44.8533 113.023 44.64C111.876 44.4533 110.556 44.3467 109.063 44.32C108.343 44.2933 107.636 44.2533 106.943 44.2C106.25 44.1733 105.583 44.1067 104.943 44C104.223 44.48 103.663 45.0667 103.263 45.76C102.863 46.4533 102.663 47.1867 102.663 47.96C102.663 49.2667 103.276 50.3067 104.503 51.08C105.756 51.88 107.41 52.28 109.463 52.28ZM108.943 35.88C109.93 35.88 110.743 35.64 111.383 35.16C112.05 34.68 112.543 34.0267 112.863 33.2C113.21 32.3733 113.383 31.44 113.383 30.4C113.383 29.2267 113.21 28.1333 112.863 27.12C112.516 26.1067 111.996 25.2933 111.303 24.68C110.636 24.0667 109.783 23.76 108.743 23.76C107.303 23.76 106.183 24.3067 105.383 25.4C104.61 26.4667 104.223 27.8 104.223 29.4C104.223 30.68 104.41 31.8133 104.783 32.8C105.156 33.76 105.69 34.52 106.383 35.08C107.103 35.6133 107.956 35.88 108.943 35.88ZM135.789 41.8C136.616 41.8 137.189 41.6 137.509 41.2C137.829 40.7733 138.016 40.2 138.069 39.48C138.122 38.7333 138.149 37.88 138.149 36.92V31.32C138.149 29.0267 137.776 27.3067 137.029 26.16C136.309 25.0133 135.162 24.4533 133.589 24.48C132.602 24.5067 131.629 24.7467 130.669 25.2C129.736 25.6533 128.976 26.24 128.389 26.96V38.76C128.389 39.2933 128.376 39.7733 128.349 40.2C128.322 40.6 128.269 41.0267 128.189 41.48C128.616 41.4533 129.029 41.44 129.429 41.44C129.856 41.4133 130.282 41.3867 130.709 41.36V43H122.549V41.8C123.376 41.8 123.949 41.6 124.269 41.2C124.589 40.7733 124.776 40.2 124.829 39.48C124.909 38.7333 124.949 37.88 124.949 36.92V18C124.949 17.5733 124.949 17.1733 124.949 16.8C124.976 16.4 125.016 15.9333 125.069 15.4C124.589 15.4267 124.109 15.4533 123.629 15.48C123.176 15.5067 122.709 15.5333 122.229 15.56V13.88C123.402 13.88 124.309 13.8267 124.949 13.72C125.616 13.6133 126.109 13.48 126.429 13.32C126.776 13.16 127.042 12.9867 127.229 12.8H128.389V25C128.976 24.4933 129.629 24.0533 130.349 23.68C131.096 23.28 131.856 22.96 132.629 22.72C133.429 22.48 134.202 22.36 134.949 22.36C137.269 22.36 138.936 23.0933 139.949 24.56C140.989 26 141.522 28.2533 141.549 31.32L141.589 38.76C141.589 39.2933 141.576 39.7733 141.549 40.2C141.549 40.6 141.509 41.0267 141.429 41.48C141.856 41.4533 142.269 41.44 142.669 41.44C143.096 41.4133 143.522 41.3867 143.949 41.36V43H135.789V41.8ZM154.063 43.64C153.449 43.64 152.823 43.5467 152.183 43.36C151.543 43.2 150.943 42.8667 150.383 42.36C149.849 41.8533 149.423 41.12 149.103 40.16C148.783 39.1733 148.623 37.88 148.623 36.28L148.703 24.68L145.623 24.72V23C146.316 22.9733 147.023 22.72 147.743 22.24C148.463 21.7333 149.103 21.0533 149.663 20.2C150.249 19.3467 150.649 18.4133 150.863 17.4H152.223V23H158.943V24.56L152.223 24.64L152.143 35.76C152.143 36.96 152.236 37.9867 152.423 38.84C152.636 39.6667 152.969 40.2933 153.423 40.72C153.876 41.1467 154.463 41.36 155.183 41.36C155.929 41.36 156.623 41.1467 157.263 40.72C157.929 40.2933 158.516 39.7067 159.023 38.96L160.103 39.84C159.516 40.72 158.929 41.4133 158.343 41.92C157.783 42.4267 157.236 42.8 156.703 43.04C156.169 43.3067 155.676 43.4667 155.223 43.52C154.769 43.6 154.383 43.64 154.063 43.64Z" fill="#99A6BF"/>
</svg>
